<svg width="21" height="20" viewBox="0 0 21 20" fill="none" xmlns="http://www.w3.org/2000/svg">
<path d="M8.78727 14.0783C8.09927 14.0183 7.40127 13.9883 6.69727 13.9883H5.94727C4.75379 13.9883 3.6092 13.5142 2.76529 12.6703C1.92137 11.8263 1.44727 10.6818 1.44727 9.48828C1.44727 8.29481 1.92137 7.15021 2.76529 6.3063C3.6092 5.46239 4.75379 4.98828 5.94727 4.98828H6.69727C7.40127 4.98828 8.09927 4.95828 8.78727 4.89828M8.78727 14.0783C9.04027 15.0403 9.37127 15.9703 9.77227 16.8613C10.0193 17.4113 9.83227 18.0713 9.30927 18.3723L8.65227 18.7523C8.10127 19.0703 7.39227 18.8693 7.12527 18.2913C6.49156 16.9203 6.00872 15.4846 5.68527 14.0093M8.78727 14.0783C8.39425 12.58 8.19595 11.0373 8.19727 9.48828C8.19727 7.90228 8.40227 6.36428 8.78727 4.89828M8.78727 14.0783C11.8688 14.3424 14.8695 15.2034 17.6223 16.6133M8.78727 4.89828C11.8688 4.6342 14.8695 3.77321 17.6223 2.36328M17.6223 16.6133C17.5043 16.9933 17.3773 17.3673 17.2423 17.7383M17.6223 16.6133C18.1663 14.8598 18.5065 13.0496 18.6363 11.2183M17.6223 2.36328C17.505 1.98517 17.3783 1.61005 17.2423 1.23828M17.6223 2.36328C18.1663 4.11672 18.5065 5.92698 18.6363 7.75828M18.6363 7.75828C19.1313 8.17128 19.4473 8.79328 19.4473 9.48828C19.4473 10.1833 19.1313 10.8053 18.6363 11.2183M18.6363 7.75828C18.7183 8.91016 18.7183 10.0664 18.6363 11.2183" stroke="#C40202" stroke-width="1.5" stroke-linecap="round" stroke-linejoin="round"/>
</svg>
