<svg width="40" height="40" viewBox="0 0 40 40" fill="none" xmlns="http://www.w3.org/2000/svg">
<rect width="40" height="40" rx="20" fill="white"/>
<path d="M11.75 11V22.25C11.75 22.8467 11.9871 23.419 12.409 23.841C12.831 24.2629 13.4033 24.5 14 24.5H16.25M11.75 11H10.25M11.75 11H28.25M16.25 24.5H23.75M16.25 24.5L15.25 27.5M28.25 11H29.75M28.25 11V22.25C28.25 22.8467 28.0129 23.419 27.591 23.841C27.169 24.2629 26.5967 24.5 26 24.5H23.75M23.75 24.5L24.75 27.5M15.25 27.5H24.75M15.25 27.5L14.75 29M24.75 27.5L25.25 29M15.5 20L18.5 17L20.648 19.148C21.6572 17.6993 22.9722 16.4898 24.5 15.605" stroke="url(#paint0_linear_620_3677)" stroke-width="1.5" stroke-linecap="round" stroke-linejoin="round"/>
<defs>
<linearGradient id="paint0_linear_620_3677" x1="32.3941" y1="29" x2="5.83876" y2="27.3859" gradientUnits="userSpaceOnUse">
<stop stop-color="#7F0102"/>
<stop offset="1" stop-color="#C90103"/>
</linearGradient>
</defs>
</svg>
