<svg width="64" height="65" viewBox="0 0 64 65" fill="none" xmlns="http://www.w3.org/2000/svg">
<rect x="0.5" y="0.5" width="63" height="64" rx="31.5" fill="white"/>
<path d="M46.6668 36.3222V43.8778C46.6668 45.8227 45.2677 47.4973 43.3388 47.7533C39.6285 48.2458 35.8437 48.5 32.0001 48.5C28.1565 48.5 24.3717 48.2458 20.6614 47.7533C18.7325 47.4973 17.3334 45.8227 17.3334 43.8778V36.3222M46.6668 36.3222C47.0889 35.9554 47.4267 35.5015 47.6568 34.9918C47.887 34.4821 48.0041 33.9286 48.0001 33.3693V26.644C48.0001 24.7222 46.6348 23.0618 44.7343 22.7773C42.7206 22.4759 40.6968 22.2464 38.6668 22.0893M46.6668 36.3222C46.3219 36.6156 45.9201 36.8467 45.4703 36.9978C41.1258 38.4393 36.5775 39.1716 32.0001 39.1667C27.2925 39.1667 22.7645 38.404 18.5299 36.9978C18.0912 36.8519 17.6849 36.6225 17.3334 36.3222M17.3334 36.3222C16.9113 35.9554 16.5735 35.5015 16.3434 34.9918C16.1132 34.4821 15.9961 33.9286 16.0001 33.3693V26.644C16.0001 24.7222 17.3654 23.0618 19.2659 22.7773C21.2796 22.4759 23.3034 22.2464 25.3334 22.0893M38.6668 22.0893V20.5C38.6668 19.4391 38.2453 18.4217 37.4952 17.6716C36.745 16.9214 35.7276 16.5 34.6668 16.5H29.3334C28.2726 16.5 27.2551 16.9214 26.505 17.6716C25.7549 18.4217 25.3334 19.4391 25.3334 20.5V22.0893M38.6668 22.0893C34.2289 21.7464 29.7713 21.7464 25.3334 22.0893M32.0001 33.8333H32.0143V33.8476H32.0001V33.8333Z" stroke="url(#paint0_linear_574_2090)" stroke-width="2" stroke-linecap="round" stroke-linejoin="round"/>
<defs>
<linearGradient id="paint0_linear_574_2090" x1="52.3392" y1="48.5" x2="8.73726" y2="46.0536" gradientUnits="userSpaceOnUse">
<stop stop-color="#7F0102"/>
<stop offset="1" stop-color="#C90103"/>
</linearGradient>
</defs>
</svg>
