<svg width="19" height="22" viewBox="0 0 19 22" fill="none" xmlns="http://www.w3.org/2000/svg">
<path d="M8.79727 3.07428C8.73227 3.28428 8.69727 3.50728 8.69727 3.73828C8.69727 4.15228 9.03327 4.48828 9.44727 4.48828H13.9473C14.1462 4.48828 14.3369 4.40926 14.4776 4.26861C14.6182 4.12796 14.6973 3.93719 14.6973 3.73828C14.6973 3.51319 14.6636 3.28937 14.5973 3.07428M8.79727 3.07428C8.93929 2.61498 9.22464 2.21322 9.61153 1.92782C9.99841 1.64243 10.4665 1.48839 10.9473 1.48828H12.4473C13.4593 1.48828 14.3143 2.15628 14.5973 3.07428M8.79727 3.07428C8.42127 3.09728 8.04727 3.12428 7.67327 3.15428C6.54227 3.24828 5.69727 4.21128 5.69727 5.34628V7.48828M14.5973 3.07428C14.9733 3.09728 15.3473 3.12428 15.7213 3.15428C16.8523 3.24828 17.6973 4.21128 17.6973 5.34628V15.7383C17.6973 16.335 17.4602 16.9073 17.0383 17.3293C16.6163 17.7512 16.044 17.9883 15.4473 17.9883H13.1973M5.69727 7.48828H2.32227C1.70127 7.48828 1.19727 7.99228 1.19727 8.61328V19.8633C1.19727 20.4843 1.70127 20.9883 2.32227 20.9883H12.0723C12.6933 20.9883 13.1973 20.4843 13.1973 19.8633V17.9883M5.69727 7.48828H12.0723C12.6933 7.48828 13.1973 7.99228 13.1973 8.61328V17.9883M4.94727 14.9883L6.44727 16.4883L9.44727 12.7383" stroke="#C40202" stroke-width="1.5" stroke-linecap="round" stroke-linejoin="round"/>
</svg>
