<svg width="41" height="40" viewBox="0 0 41 40" fill="none" xmlns="http://www.w3.org/2000/svg">
<rect x="0.75" width="40" height="40" rx="20" fill="white"/>
<path d="M20.75 14V20H25.25M29.75 20C29.75 21.1819 29.5172 22.3522 29.0649 23.4442C28.6126 24.5361 27.9497 25.5282 27.114 26.364C26.2782 27.1997 25.2861 27.8626 24.1942 28.3149C23.1022 28.7672 21.9319 29 20.75 29C19.5681 29 18.3978 28.7672 17.3058 28.3149C16.2139 27.8626 15.2218 27.1997 14.386 26.364C13.5503 25.5282 12.8874 24.5361 12.4351 23.4442C11.9828 22.3522 11.75 21.1819 11.75 20C11.75 17.6131 12.6982 15.3239 14.386 13.636C16.0739 11.9482 18.3631 11 20.75 11C23.1369 11 25.4261 11.9482 27.114 13.636C28.8018 15.3239 29.75 17.6131 29.75 20Z" stroke="url(#paint0_linear_593_3388)" stroke-width="1.5" stroke-linecap="round" stroke-linejoin="round"/>
<defs>
<linearGradient id="paint0_linear_593_3388" x1="32.1907" y1="29" x2="7.66473" y2="27.6239" gradientUnits="userSpaceOnUse">
<stop stop-color="#7F0102"/>
<stop offset="1" stop-color="#C90103"/>
</linearGradient>
</defs>
</svg>
