<svg width="41" height="40" viewBox="0 0 41 40" fill="none" xmlns="http://www.w3.org/2000/svg">
<g clip-path="url(#clip0_812_1087)">
<path d="M20.7804 5.33361C20.9572 5.33361 21.1268 5.26337 21.2518 5.13834C21.3768 5.01331 21.4471 4.84373 21.4471 4.66691V0.666701C21.4471 0.489881 21.3768 0.320303 21.2518 0.195272C21.1268 0.0702416 20.9572 0 20.7804 0C20.6036 0 20.434 0.0702416 20.309 0.195272C20.1839 0.320303 20.1137 0.489881 20.1137 0.666701V4.66691C20.1137 4.84373 20.1839 5.01331 20.309 5.13834C20.434 5.26337 20.6036 5.33361 20.7804 5.33361ZM10.8692 3.49818L12.8693 6.96503C12.9126 7.04114 12.9704 7.10798 13.0395 7.16174C13.1087 7.21549 13.1877 7.25511 13.2721 7.27832C13.3565 7.30154 13.4447 7.3079 13.5316 7.29704C13.6184 7.28618 13.7023 7.25832 13.7784 7.21504C13.8545 7.17176 13.9214 7.11392 13.9751 7.04481C14.0289 6.9757 14.0685 6.89668 14.0917 6.81226C14.1149 6.72784 14.1213 6.63967 14.1104 6.55279C14.0996 6.46591 14.0717 6.38202 14.0285 6.30591L14.024 6.29824L12.0239 2.8314C11.9355 2.67827 11.7899 2.56654 11.6191 2.52079C11.4483 2.47503 11.2663 2.49901 11.1132 2.58743C10.96 2.67585 10.8483 2.82148 10.8026 2.99228C10.7568 3.16308 10.7808 3.34506 10.8692 3.49818ZM4.28019 10.5779L7.74704 12.578C7.90009 12.665 8.08134 12.688 8.25124 12.6418C8.42115 12.5957 8.56591 12.4842 8.65394 12.3318C8.74197 12.1793 8.76612 11.9982 8.72112 11.828C8.67612 11.6578 8.56562 11.5123 8.41374 11.4233L4.94689 9.42316C4.79385 9.33614 4.6126 9.31319 4.44269 9.35932C4.27279 9.40545 4.12803 9.51691 4.04 9.66937C3.95197 9.82184 3.92782 10.0029 3.97282 10.1731C4.01782 10.3433 4.12831 10.4888 4.28019 10.5779ZM6.77966 19.3343C6.77966 19.1575 6.70941 18.9879 6.58438 18.8629C6.45935 18.7379 6.28978 18.6676 6.11296 18.6676H2.11275C1.93593 18.6676 1.76635 18.7379 1.64132 18.8629C1.51629 18.9879 1.44604 19.1575 1.44604 19.3343C1.44604 19.5112 1.51629 19.6807 1.64132 19.8058C1.76635 19.9308 1.93593 20.001 2.11275 20.001H6.11296C6.28978 20.001 6.45935 19.9308 6.58438 19.8058C6.70941 19.6807 6.77966 19.5112 6.77966 19.3343ZM7.75212 26.0862L7.74437 26.0907L4.27753 28.0908C4.12479 28.1787 4.01305 28.3234 3.96674 28.4935C3.92043 28.6635 3.94331 28.8449 4.03038 28.9981C4.11746 29.1513 4.26164 29.2638 4.43141 29.311C4.60118 29.3582 4.78274 29.3363 4.93639 29.25L4.94414 29.2455L8.41099 27.2454C8.56373 27.1575 8.67547 27.0128 8.72178 26.8428C8.76809 26.6727 8.74521 26.4913 8.65813 26.3381C8.57106 26.1849 8.42688 26.0724 8.25711 26.0252C8.08733 25.978 7.90578 25.9999 7.75212 26.0862ZM37.2806 28.0908L33.8137 26.0907C33.6612 26.0012 33.4794 25.9761 33.3083 26.0207C33.1372 26.0653 32.9908 26.176 32.9014 26.3285C32.8119 26.4811 32.7867 26.6629 32.8313 26.834C32.8759 27.0051 32.9867 27.1515 33.1392 27.2409L33.1469 27.2454L36.6138 29.2455C36.7669 29.3339 36.9489 29.3579 37.1197 29.3122C37.2905 29.2664 37.4361 29.1547 37.5246 29.0016C37.613 28.8484 37.6369 28.6664 37.5912 28.4956C37.5454 28.3248 37.4337 28.1792 37.2806 28.0908ZM39.448 18.6676H35.4478C35.271 18.6676 35.1014 18.7379 34.9764 18.8629C34.8514 18.9879 34.7811 19.1575 34.7811 19.3343C34.7811 19.5112 34.8514 19.6807 34.9764 19.8058C35.1014 19.9308 35.271 20.001 35.4478 20.001H39.448C39.6248 20.001 39.7944 19.9308 39.9195 19.8058C40.0445 19.6807 40.1147 19.5112 40.1147 19.3343C40.1147 19.1575 40.0445 18.9879 39.9195 18.8629C39.7944 18.7379 39.6248 18.6676 39.448 18.6676ZM33.4837 12.6673C33.6007 12.6673 33.7157 12.6365 33.8171 12.578L37.2839 10.5779C37.4358 10.4888 37.5463 10.3433 37.5913 10.1731C37.6363 10.0029 37.6121 9.82184 37.5241 9.66937C37.4361 9.51691 37.2913 9.40545 37.1214 9.35932C36.9515 9.31319 36.7703 9.33614 36.6172 9.42316L33.1504 11.4233C33.0233 11.4966 32.9239 11.6099 32.8678 11.7455C32.8116 11.8811 32.8018 12.0314 32.8398 12.1732C32.8777 12.3149 32.9614 12.4402 33.0779 12.5295C33.1943 12.6189 33.337 12.6673 33.4837 12.6673ZM27.7808 7.20904C27.9339 7.29745 28.1159 7.32141 28.2866 7.27565C28.4574 7.22988 28.6031 7.11815 28.6915 6.96503L30.6916 3.49818C30.781 3.34565 30.8062 3.16384 30.7616 2.99273C30.717 2.82163 30.6063 2.67525 30.4537 2.5858C30.3012 2.49635 30.1194 2.47116 29.9483 2.51576C29.7772 2.56037 29.6308 2.67112 29.5413 2.82365L29.5368 2.8314L27.5367 6.29824C27.493 6.37407 27.4645 6.45778 27.4531 6.54459C27.4417 6.6314 27.4474 6.71961 27.4701 6.80419C27.4928 6.88876 27.5319 6.96805 27.5852 7.03751C27.6385 7.10698 27.7049 7.16526 27.7808 7.20904ZM20.7804 9.33382C15.2598 9.34007 10.7861 13.8138 10.7799 19.3343C10.7799 19.5112 10.8501 19.6807 10.9751 19.8058C11.1002 19.9308 11.2697 20.001 11.4466 20.001C11.6234 20.001 11.793 19.9308 11.918 19.8058C12.043 19.6807 12.1133 19.5112 12.1133 19.3343C12.1188 14.5499 15.996 10.6727 20.7804 10.6672C20.9572 10.6672 21.1268 10.597 21.2518 10.472C21.3768 10.3469 21.4471 10.1773 21.4471 10.0005C21.4471 9.8237 21.3768 9.65412 21.2518 9.52909C21.1268 9.40406 20.9572 9.33382 20.7804 9.33382Z" fill="url(#paint0_linear_812_1087)"/>
<path d="M32.98 22.7302V22.7269C33.0014 22.6602 33.0207 22.5882 33.0374 22.5229C33.0614 22.4309 33.0814 22.3382 33.1041 22.2455C33.1267 22.1528 33.1481 22.0602 33.1607 21.9862C34.6389 15.1481 30.2939 8.40654 23.4559 6.9283C16.6179 5.45005 9.87626 9.79511 8.39802 16.6331C8.20618 17.5206 8.11032 18.4261 8.11208 19.334C8.11208 19.6307 8.12475 19.9254 8.14542 20.2181C8.15609 20.3801 8.17209 20.5448 8.19209 20.7174C8.22942 21.0575 8.27743 21.3948 8.3421 21.7288C8.34743 21.7562 8.34943 21.7842 8.35676 21.8115C8.3861 21.9642 8.42343 22.1122 8.45877 22.2602C8.47944 22.3462 8.49944 22.4322 8.52144 22.5175C8.53144 22.5535 8.53677 22.5842 8.54811 22.6255C8.57478 22.7249 8.60611 22.8189 8.63544 22.9162C8.66678 23.0242 8.69678 23.1322 8.73145 23.2389L8.73545 23.2516C8.79545 23.4456 8.86346 23.6343 8.94546 23.8443C8.9608 23.8849 8.9768 23.9249 8.9928 23.9649C9.00746 24.0146 9.02672 24.0628 9.05013 24.1089L9.05347 24.1169C9.09846 24.2346 9.14806 24.3505 9.20214 24.4643L9.21081 24.481C9.24414 24.5563 9.27748 24.631 9.31348 24.7063C9.33015 24.7436 9.34615 24.785 9.36282 24.819C9.54142 25.1953 9.74039 25.5617 9.95885 25.9164L10.0209 26.015C10.0609 26.0817 10.1015 26.1484 10.1422 26.2051L10.2242 26.3271C10.2642 26.3857 10.3055 26.4451 10.3462 26.5037C10.3755 26.5464 10.4029 26.5891 10.4329 26.6311C10.4475 26.6551 10.4615 26.6784 10.4802 26.7037C10.4942 26.7224 10.5095 26.7411 10.5242 26.7597C10.5502 26.7957 10.5769 26.8264 10.6029 26.8618C10.7116 27.0096 10.8227 27.1556 10.9362 27.2998L10.9442 27.3104C10.9656 27.3358 10.9876 27.3598 11.0109 27.3851C11.1442 27.5465 11.2776 27.7065 11.4209 27.8618H11.4243C11.5429 27.9951 11.6689 28.1205 11.7943 28.2472C11.8343 28.2865 11.8709 28.3285 11.9109 28.3678C11.9283 28.3845 11.9436 28.4032 11.961 28.4198C12.141 28.5932 12.3276 28.7592 12.5123 28.9232C12.8623 29.23 13.2315 29.5141 13.6177 29.7739C13.6869 29.852 13.7734 29.9127 13.8704 29.9512L14.1311 31.8927C14.1216 31.9283 14.1154 31.9647 14.1124 32.0014C14.1142 32.1039 14.14 32.2046 14.1877 32.2954L14.6784 35.9436C14.6865 36.0064 14.7038 36.0677 14.7298 36.1256C14.8708 36.4445 15.0409 36.7498 15.2378 37.0376V37.0423L15.2431 37.0483C17.2919 40.1033 21.4294 40.9191 24.4844 38.8703C25.2045 38.3873 25.8234 37.7684 26.3064 37.0483L26.3117 37.0423L26.315 37.0376C26.5119 36.7498 26.682 36.4445 26.8231 36.1256C26.8491 36.0677 26.8663 36.0064 26.8744 35.9436L27.6804 29.9506C27.7271 29.935 27.7718 29.9142 27.8138 29.8886C30.3294 28.2028 32.1585 25.6723 32.97 22.7549C32.976 22.748 32.9795 22.7393 32.98 22.7302ZM17.2579 37.335H24.3009C22.2898 39.1128 19.2689 39.1128 17.2579 37.335ZM25.5717 35.6682C25.5188 35.7817 25.4612 35.8929 25.399 36.0016H16.1598C16.0973 35.893 16.0397 35.7818 15.9871 35.6682L15.5837 32.6681H25.9749L25.5717 35.6682ZM26.153 31.3427C26.139 31.342 26.127 31.3347 26.113 31.3347H15.4045L15.2251 30.0013H26.3337L26.153 31.3427ZM19.446 28.6678V22.4249L20.3854 23.1016C20.4989 23.1833 20.6352 23.2273 20.7751 23.2273C20.9149 23.2273 21.0513 23.1833 21.1648 23.1016L22.1128 22.4189V28.6678H19.446ZM32.088 20.0674C32.0755 20.2693 32.0569 20.4707 32.032 20.6714V20.6868C32.0238 20.7232 32.0183 20.7602 32.0153 20.7974V20.8108C32.0113 20.8308 32.0087 20.8508 32.006 20.8721C32.0033 20.8934 32.002 20.9054 32 20.9234C32 20.9428 31.9947 20.9614 31.992 20.9808C31.9773 21.0841 31.962 21.1868 31.944 21.2895C31.9353 21.3361 31.9287 21.3795 31.9173 21.4321C31.9067 21.5028 31.89 21.5788 31.8653 21.6921V21.7042C31.8487 21.7842 31.8313 21.8642 31.8127 21.9435C31.806 21.9702 31.8013 21.9928 31.7933 22.0228C31.7709 22.1324 31.7428 22.2408 31.7093 22.3475C31.6966 22.3949 31.6826 22.4422 31.6693 22.4895C31.6366 22.6102 31.6026 22.7282 31.5573 22.8569C31.5026 23.0276 31.4486 23.1982 31.382 23.3616L31.356 23.4282C31.3248 23.5149 31.2892 23.5999 31.2493 23.6829C31.2347 23.7117 31.2225 23.7416 31.2126 23.7723L31.1993 23.8023C31.14 23.9516 31.0739 24.0943 30.9886 24.269C30.9406 24.377 30.8873 24.479 30.8339 24.581L30.7533 24.7403C29.8978 26.317 28.6792 27.6674 27.1984 28.6798C27.1637 28.6729 27.1285 28.6688 27.0931 28.6678H23.4462V23.0636L23.4996 23.1016C23.6129 23.183 23.749 23.2268 23.8886 23.2268C24.0282 23.2268 24.1642 23.183 24.2776 23.1016L25.835 21.9828C25.9814 21.8837 26.0825 21.7305 26.116 21.5569C26.1494 21.3833 26.1125 21.2035 26.0134 21.057C25.9626 20.982 25.897 20.918 25.8207 20.8692C25.7443 20.8203 25.6588 20.7875 25.5693 20.7728C25.4799 20.7581 25.3883 20.7618 25.3004 20.7837C25.2124 20.8056 25.1298 20.8452 25.0576 20.9001L23.8882 21.7395L22.7195 20.9001C22.6061 20.8185 22.4699 20.7746 22.3302 20.7746C22.1904 20.7746 22.0542 20.8185 21.9408 20.9001L20.7754 21.7388L19.61 20.9001C19.4965 20.8184 19.3602 20.7744 19.2203 20.7744C19.0805 20.7744 18.9441 20.8184 18.8306 20.9001L17.6659 21.7388L16.5025 20.9001C16.359 20.7967 16.1803 20.7545 16.0057 20.7828C15.8311 20.8111 15.6749 20.9076 15.5715 21.0511C15.468 21.1946 15.4258 21.3733 15.4542 21.5479C15.4825 21.7225 15.579 21.8787 15.7225 21.9822L17.2759 23.1016C17.3894 23.1833 17.5257 23.2273 17.6656 23.2273C17.8055 23.2273 17.9418 23.1833 18.0553 23.1016L18.1126 23.0602V28.6678H14.4657C14.4374 28.6682 14.4092 28.6702 14.3811 28.6738C13.6612 28.181 13.0002 27.6072 12.411 26.9638C12.2836 26.8251 12.1603 26.6784 12.0363 26.5284C12.0136 26.5011 11.989 26.4744 11.9663 26.4464C11.8536 26.3131 11.7503 26.1717 11.6476 26.029C11.6083 25.9757 11.5663 25.9244 11.5283 25.8704V25.8664C11.5229 25.8584 11.5183 25.851 11.5129 25.8444L11.4909 25.8117C11.4736 25.789 11.4596 25.7657 11.4429 25.745C11.2876 25.5197 11.1429 25.2877 11.0042 25.0523C10.873 24.8316 10.7509 24.6056 10.6382 24.375C10.5935 24.2863 10.5475 24.1983 10.5049 24.1083C10.4922 24.0769 10.4769 24.0416 10.4689 24.0223L10.4362 23.9556L10.4282 23.9396V23.9363C10.2654 23.5733 10.1223 23.2019 9.99952 22.8235C9.98752 22.7875 9.97618 22.7495 9.96418 22.7129C9.90295 22.5182 9.84693 22.3219 9.79617 22.1242C9.79617 22.1135 9.79017 22.1035 9.78817 22.0928C9.78417 22.0661 9.77883 22.0397 9.77217 22.0135C9.76017 21.9682 9.7515 21.9208 9.74084 21.8755C9.70883 21.7368 9.67417 21.5988 9.64883 21.4588C9.64883 21.4435 9.6455 21.4281 9.64283 21.4128C9.60637 21.2275 9.57657 21.0409 9.55349 20.8534C9.55302 20.8121 9.54765 20.7709 9.53749 20.7308C9.53749 20.7168 9.53283 20.6941 9.52882 20.6708C9.50416 20.4708 9.48616 20.2761 9.47282 20.0607C9.45149 19.8187 9.44549 19.576 9.44549 19.334C9.45249 13.0774 14.5228 8.0071 20.7794 8.0001C27.0361 8.0071 32.1063 13.0774 32.1133 19.334C32.1133 19.576 32.1073 19.8187 32.088 20.0674Z" fill="#101F34"/>
</g>
<defs>
<linearGradient id="paint0_linear_812_1087" x1="45.3579" y1="29.3354" x2="-7.20851" y2="25.4476" gradientUnits="userSpaceOnUse">
<stop stop-color="#7F0102"/>
<stop offset="1" stop-color="#C90103"/>
</linearGradient>
<clipPath id="clip0_812_1087">
<rect width="40" height="40" fill="white" transform="translate(0.780029)"/>
</clipPath>
</defs>
</svg>
