<svg width="41" height="40" viewBox="0 0 41 40" fill="none" xmlns="http://www.w3.org/2000/svg">
<rect x="0.399414" width="40" height="40" rx="20" fill="url(#paint0_linear_593_3344)"/>
<path d="M17.3994 25.25V26.257C17.3995 26.6511 17.3219 27.0414 17.171 27.4055C17.0202 27.7696 16.7991 28.1004 16.5204 28.379L15.8994 29H24.8994L24.2784 28.379C23.9997 28.1004 23.7786 27.7696 23.6278 27.4055C23.477 27.0414 23.3994 26.6511 23.3994 26.257V25.25M29.3994 13.25V23C29.3994 23.5967 29.1624 24.169 28.7404 24.591C28.3184 25.0129 27.7462 25.25 27.1494 25.25H13.6494C13.0527 25.25 12.4804 25.0129 12.0584 24.591C11.6365 24.169 11.3994 23.5967 11.3994 23V13.25M29.3994 13.25C29.3994 12.6533 29.1624 12.081 28.7404 11.659C28.3184 11.2371 27.7462 11 27.1494 11H13.6494C13.0527 11 12.4804 11.2371 12.0584 11.659C11.6365 12.081 11.3994 12.6533 11.3994 13.25M29.3994 13.25V20C29.3994 20.5967 29.1624 21.169 28.7404 21.591C28.3184 22.0129 27.7462 22.25 27.1494 22.25H13.6494C13.0527 22.25 12.4804 22.0129 12.0584 21.591C11.6365 21.169 11.3994 20.5967 11.3994 20V13.25" stroke="white" stroke-width="1.5" stroke-linecap="round" stroke-linejoin="round"/>
<defs>
<linearGradient id="paint0_linear_593_3344" x1="45.8231" y1="40" x2="-8.67896" y2="36.942" gradientUnits="userSpaceOnUse">
<stop stop-color="#7F0102"/>
<stop offset="1" stop-color="#C90103"/>
</linearGradient>
</defs>
</svg>
