<svg width="41" height="40" viewBox="0 0 41 40" fill="none" xmlns="http://www.w3.org/2000/svg">
<rect x="0.226562" width="40" height="40" rx="20" fill="url(#paint0_linear_593_3330)"/>
<g clip-path="url(#clip0_593_3330)">
<path d="M17.7565 24.122C17.4949 23.477 17.0172 22.9431 16.4052 22.6116C15.7932 22.2802 15.085 22.1718 14.4019 22.3052C13.7188 22.4385 13.1033 22.8051 12.6608 23.3424C12.2184 23.8796 11.9765 24.554 11.9765 25.25C11.9765 25.5581 11.9133 25.8629 11.7906 26.1455C11.668 26.4282 11.4886 26.6826 11.2636 26.8931C11.0386 27.1036 10.7727 27.2656 10.4825 27.3691C10.1923 27.4727 9.88396 27.5155 9.57654 27.495C10.071 28.3539 10.8352 29.0256 11.7505 29.4058C12.6658 29.7859 13.6809 29.8533 14.6384 29.5974C15.5959 29.3415 16.4422 28.7766 17.0458 27.9905C17.6493 27.2044 17.9765 26.241 17.9765 25.25C17.9765 24.851 17.8985 24.47 17.7565 24.122ZM17.7565 24.122C18.9456 23.7168 20.0827 23.1731 21.1445 22.502M16.1015 22.477C16.5067 21.2854 17.0512 20.1459 17.7235 19.082M21.1435 22.502C23.0399 21.3038 24.663 19.7202 25.9075 17.854L29.7835 12.04C29.932 11.8185 29.999 11.5524 29.9731 11.287C29.9472 11.0217 29.83 10.7736 29.6414 10.585C29.4529 10.3965 29.2048 10.2793 28.9394 10.2534C28.6741 10.2275 28.408 10.2945 28.1865 10.443L22.3725 14.32C20.5061 15.5641 18.9221 17.1869 17.7235 19.083C19.2454 19.7634 20.4631 20.9811 21.1435 22.503" stroke="white" stroke-width="1.5" stroke-linecap="round" stroke-linejoin="round"/>
</g>
<defs>
<linearGradient id="paint0_linear_593_3330" x1="45.6503" y1="40" x2="-8.85181" y2="36.942" gradientUnits="userSpaceOnUse">
<stop stop-color="#7F0102"/>
<stop offset="1" stop-color="#C90103"/>
</linearGradient>
<clipPath id="clip0_593_3330">
<rect width="24" height="24" fill="white" transform="translate(8.22656 8)"/>
</clipPath>
</defs>
</svg>
