<svg width="22" height="22" viewBox="0 0 22 22" fill="none" xmlns="http://www.w3.org/2000/svg">
<path d="M8.97687 15.3604C8.71526 14.7154 8.23755 14.1815 7.62555 13.85C7.01355 13.5186 6.30535 13.4102 5.62225 13.5436C4.93915 13.6769 4.32365 14.0435 3.88118 14.5808C3.43871 15.118 3.19679 15.7924 3.19688 16.4884C3.19688 16.7965 3.1336 17.1013 3.01096 17.3839C2.88832 17.6666 2.70893 17.921 2.48392 18.1315C2.25891 18.342 1.99306 18.504 1.70287 18.6076C1.41267 18.7111 1.1043 18.7539 0.796875 18.7334C1.29132 19.5923 2.05551 20.264 2.9708 20.6442C3.88609 21.0243 4.90128 21.0917 5.85877 20.8358C6.81627 20.5799 7.66249 20.015 8.26609 19.2289C8.86968 18.4428 9.19688 17.4795 9.19687 16.4884C9.19687 16.0894 9.11887 15.7084 8.97687 15.3604ZM8.97687 15.3604C10.1659 14.9552 11.3031 14.4115 12.3649 13.7404M7.32188 13.7154C7.72708 12.5238 8.27152 11.3843 8.94387 10.3204M12.3639 13.7404C14.2602 12.5422 15.8834 10.9586 17.1279 9.09236L21.0039 3.27836C21.1524 3.05692 21.2194 2.7908 21.1934 2.52545C21.1675 2.2601 21.0503 2.01197 20.8618 1.82345C20.6733 1.63493 20.4251 1.5177 20.1598 1.49178C19.8944 1.46586 19.6283 1.53287 19.4069 1.68136L13.5929 5.55836C11.7264 6.80249 10.1424 8.42528 8.94387 10.3214C10.4658 11.0018 11.6834 12.2195 12.3639 13.7414" stroke="#C40202" stroke-width="1.5" stroke-linecap="round" stroke-linejoin="round"/>
</svg>
