<svg width="40" height="40" viewBox="0 0 40 40" fill="none" xmlns="http://www.w3.org/2000/svg">
<rect width="40" height="40" rx="20" fill="white"/>
<path d="M17.5301 24.122C17.2685 23.477 16.7908 22.9431 16.1788 22.6116C15.5668 22.2802 14.8586 22.1718 14.1755 22.3052C13.4924 22.4385 12.8769 22.8051 12.4344 23.3424C11.9919 23.8796 11.75 24.554 11.7501 25.25C11.7501 25.5581 11.6868 25.8629 11.5642 26.1455C11.4415 26.4282 11.2622 26.6826 11.0371 26.8931C10.8121 27.1036 10.5463 27.2656 10.2561 27.3691C9.96589 27.4727 9.65752 27.5155 9.3501 27.495C9.84454 28.3539 10.6087 29.0256 11.524 29.4058C12.4393 29.7859 13.4545 29.8533 14.412 29.5974C15.3695 29.3415 16.2157 28.7766 16.8193 27.9905C17.4229 27.2044 17.7501 26.241 17.7501 25.25C17.7501 24.851 17.6721 24.47 17.5301 24.122ZM17.5301 24.122C18.7191 23.7168 19.8563 23.1731 20.9181 22.502M15.8751 22.477C16.2803 21.2854 16.8247 20.1459 17.4971 19.082M20.9171 22.502C22.8134 21.3038 24.4366 19.7202 25.6811 17.854L29.5571 12.04C29.7056 11.8185 29.7726 11.5524 29.7467 11.287C29.7208 11.0217 29.6035 10.7736 29.415 10.585C29.2265 10.3965 28.9784 10.2793 28.713 10.2534C28.4477 10.2275 28.1815 10.2945 27.9601 10.443L22.1461 14.32C20.2796 15.5641 18.6957 17.1869 17.4971 19.083C19.019 19.7634 20.2366 20.9811 20.9171 22.503" stroke="url(#paint0_linear_620_3685)" stroke-width="1.5" stroke-linecap="round" stroke-linejoin="round"/>
<defs>
<linearGradient id="paint0_linear_620_3685" x1="32.5185" y1="29.75" x2="4.7279" y2="28.1187" gradientUnits="userSpaceOnUse">
<stop stop-color="#7F0102"/>
<stop offset="1" stop-color="#C90103"/>
</linearGradient>
</defs>
</svg>
