<svg width="40" height="40" viewBox="0 0 40 40" fill="none" xmlns="http://www.w3.org/2000/svg">
<rect width="40" height="40" rx="20" fill="white"/>
<path d="M29.75 15.25V25.75C29.75 26.3467 29.5129 26.919 29.091 27.341C28.669 27.7629 28.0967 28 27.5 28H12.5C11.9033 28 11.331 27.7629 10.909 27.341C10.4871 26.919 10.25 26.3467 10.25 25.75V15.25M29.75 15.25C29.75 14.6533 29.5129 14.081 29.091 13.659C28.669 13.2371 28.0967 13 27.5 13H12.5C11.9033 13 11.331 13.2371 10.909 13.659C10.4871 14.081 10.25 14.6533 10.25 15.25M29.75 15.25V15.493C29.75 15.8771 29.6517 16.2549 29.4644 16.5903C29.2771 16.9257 29.0071 17.2075 28.68 17.409L21.18 22.024C20.8252 22.2425 20.4167 22.3582 20 22.3582C19.5833 22.3582 19.1748 22.2425 18.82 22.024L11.32 17.41C10.9929 17.2085 10.7229 16.9267 10.5356 16.5913C10.3483 16.2559 10.25 15.8781 10.25 15.494V15.25" stroke="url(#paint0_linear_316_5755)" stroke-width="1.5" stroke-linecap="round" stroke-linejoin="round"/>
<defs>
<linearGradient id="paint0_linear_316_5755" x1="32.3941" y1="28" x2="5.8817" y2="26.0662" gradientUnits="userSpaceOnUse">
<stop stop-color="#7F0102"/>
<stop offset="1" stop-color="#C90103"/>
</linearGradient>
</defs>
</svg>
