<svg width="33" height="33" viewBox="0 0 33 33" fill="none" xmlns="http://www.w3.org/2000/svg">
<g clip-path="url(#clip0_593_3448)">
<path d="M16.5 32.436C25.3366 32.436 32.5 25.2726 32.5 16.436C32.5 7.59948 25.3366 0.436035 16.5 0.436035C7.66344 0.436035 0.5 7.59948 0.5 16.436C0.5 25.2726 7.66344 32.436 16.5 32.436Z" fill="#7F0102"/>
<path d="M20.5225 17.0623H17.6675V27.5217H13.3419V17.0623H11.2847V13.3864H13.3419V11.0077C13.3419 9.30669 14.1499 6.64307 17.706 6.64307L20.9101 6.65647V10.2245H18.5853C18.204 10.2245 17.6678 10.415 17.6678 11.2265V13.3898H20.9004L20.5225 17.0623Z" fill="white"/>
</g>
<defs>
<clipPath id="clip0_593_3448">
<rect width="32" height="32" fill="white" transform="translate(0.5 0.436035)"/>
</clipPath>
</defs>
</svg>
