<svg width="33" height="33" viewBox="0 0 33 33" fill="none" xmlns="http://www.w3.org/2000/svg">
<g clip-path="url(#clip0_593_3450)">
<path d="M16.5 32.4355C25.3366 32.4355 32.5 25.2721 32.5 16.4355C32.5 7.59899 25.3366 0.435547 16.5 0.435547C7.66344 0.435547 0.5 7.59899 0.5 16.4355C0.5 25.2721 7.66344 32.4355 16.5 32.4355Z" fill="url(#paint0_linear_593_3450)"/>
<path d="M26.0599 17.7228V24.3193H22.2354V18.1649C22.2354 16.6196 21.6832 15.5643 20.2985 15.5643C19.2418 15.5643 18.614 16.2748 18.3368 16.9627C18.2361 17.2086 18.2102 17.55 18.2102 17.8948V24.319H14.3854C14.3854 24.319 14.4368 13.8955 14.3854 12.8166H18.2104V14.4466C18.2027 14.4594 18.1919 14.4719 18.1851 14.4842H18.2104V14.4466C18.7187 13.6645 19.6251 12.5465 21.6573 12.5465C24.1734 12.5465 26.0599 14.1904 26.0599 17.7228ZM10.3844 7.27197C9.07614 7.27197 8.22021 8.13076 8.22021 9.25907C8.22021 10.3634 9.05133 11.247 10.3342 11.247H10.359C11.693 11.247 12.5224 10.3634 12.5224 9.25907C12.497 8.13076 11.693 7.27197 10.3844 7.27197ZM8.44753 24.3193H12.2708V12.8166H8.44753V24.3193Z" fill="#F1F2F2"/>
</g>
<defs>
<linearGradient id="paint0_linear_593_3450" x1="36.839" y1="32.4356" x2="-6.7627" y2="29.9892" gradientUnits="userSpaceOnUse">
<stop stop-color="#7F0102"/>
<stop offset="1" stop-color="#C90103"/>
</linearGradient>
<clipPath id="clip0_593_3450">
<rect width="32" height="32" fill="white" transform="translate(0.5 0.436035)"/>
</clipPath>
</defs>
</svg>
