<svg width="33" height="33" viewBox="0 0 33 33" fill="none" xmlns="http://www.w3.org/2000/svg">
<g clip-path="url(#clip0_593_3449)">
<path d="M16.4375 32.3735C25.2741 32.3735 32.4375 25.2101 32.4375 16.3735C32.4375 7.53698 25.2741 0.373535 16.4375 0.373535C7.60094 0.373535 0.4375 7.53698 0.4375 16.3735C0.4375 25.2101 7.60094 32.3735 16.4375 32.3735Z" fill="url(#paint0_linear_593_3449)"/>
<path d="M19.8366 7.48486H13.0454C10.0161 7.48486 7.55566 9.94531 7.55566 12.9746V19.7658C7.55566 22.7951 10.0161 25.2555 13.0454 25.2555H19.8366C22.8659 25.2555 25.3263 22.7951 25.3263 19.7658V12.9746C25.3263 9.94531 22.8659 7.48486 19.8366 7.48486ZM23.3423 19.7729C23.3423 21.7071 21.7708 23.2858 19.8294 23.2858H13.0383C11.1041 23.2858 9.52544 21.7142 9.52544 19.7729V12.9818C9.52544 11.0475 11.097 9.46886 13.0383 9.46886H19.8294C21.7637 9.46886 23.3423 11.0404 23.3423 12.9818V19.7729Z" fill="white"/>
<path d="M16.4374 11.8296C13.9343 11.8296 11.8934 13.8705 11.8934 16.3736C11.8934 18.8767 13.9343 20.9176 16.4374 20.9176C18.9405 20.9176 20.9814 18.8767 20.9814 16.3736C20.9814 13.8705 18.9405 11.8296 16.4374 11.8296ZM16.4374 19.1327C14.9157 19.1327 13.6783 17.8954 13.6783 16.3736C13.6783 14.8518 14.9157 13.6145 16.4374 13.6145C17.9592 13.6145 19.1965 14.8518 19.1965 16.3736C19.1965 17.8954 17.9592 19.1327 16.4374 19.1327Z" fill="white"/>
<path d="M21.328 12.3276C21.7467 12.2595 22.0308 11.8648 21.9626 11.4462C21.8944 11.0275 21.4998 10.7434 21.0811 10.8116C20.6625 10.8798 20.3784 11.2744 20.4466 11.6931C20.5147 12.1117 20.9094 12.3958 21.328 12.3276Z" fill="white"/>
</g>
<defs>
<linearGradient id="paint0_linear_593_3449" x1="36.7765" y1="32.3735" x2="-6.8252" y2="29.9272" gradientUnits="userSpaceOnUse">
<stop stop-color="#7F0102"/>
<stop offset="1" stop-color="#C90103"/>
</linearGradient>
<clipPath id="clip0_593_3449">
<rect width="32" height="32" fill="white" transform="translate(0.5 0.436035)"/>
</clipPath>
</defs>
</svg>
