<svg width="40" height="40" viewBox="0 0 40 40" fill="none" xmlns="http://www.w3.org/2000/svg">
<rect width="40" height="40" rx="20" fill="white"/>
<path d="M23 18.5C23 19.2956 22.6839 20.0587 22.1213 20.6213C21.5587 21.1839 20.7956 21.5 20 21.5C19.2044 21.5 18.4413 21.1839 17.8787 20.6213C17.3161 20.0587 17 19.2956 17 18.5C17 17.7044 17.3161 16.9413 17.8787 16.3787C18.4413 15.8161 19.2044 15.5 20 15.5C20.7956 15.5 21.5587 15.8161 22.1213 16.3787C22.6839 16.9413 23 17.7044 23 18.5Z" stroke="url(#paint0_linear_316_5761)" stroke-width="1.5" stroke-linecap="round" stroke-linejoin="round"/>
<path d="M27.5 18.5C27.5 25.642 20 29.75 20 29.75C20 29.75 12.5 25.642 12.5 18.5C12.5 16.5109 13.2902 14.6032 14.6967 13.1967C16.1032 11.7902 18.0109 11 20 11C21.9891 11 23.8968 11.7902 25.3033 13.1967C26.7098 14.6032 27.5 16.5109 27.5 18.5Z" stroke="url(#paint1_linear_316_5761)" stroke-width="1.5" stroke-linecap="round" stroke-linejoin="round"/>
<defs>
<linearGradient id="paint0_linear_316_5761" x1="23.8136" y1="21.5" x2="15.6382" y2="21.0413" gradientUnits="userSpaceOnUse">
<stop stop-color="#7F0102"/>
<stop offset="1" stop-color="#C90103"/>
</linearGradient>
<linearGradient id="paint1_linear_316_5761" x1="29.5339" y1="29.75" x2="9.07249" y2="28.8316" gradientUnits="userSpaceOnUse">
<stop stop-color="#7F0102"/>
<stop offset="1" stop-color="#C90103"/>
</linearGradient>
</defs>
</svg>
