<svg width="25" height="24" viewBox="0 0 25 24" fill="none" xmlns="http://www.w3.org/2000/svg">
<path d="M16 10.5C16 11.2956 15.6839 12.0587 15.1213 12.6213C14.5587 13.1839 13.7956 13.5 13 13.5C12.2044 13.5 11.4413 13.1839 10.8787 12.6213C10.3161 12.0587 10 11.2956 10 10.5C10 9.70435 10.3161 8.94129 10.8787 8.37868C11.4413 7.81607 12.2044 7.5 13 7.5C13.7956 7.5 14.5587 7.81607 15.1213 8.37868C15.6839 8.94129 16 9.70435 16 10.5Z" stroke="#CA2323" stroke-width="1.5" stroke-linecap="round" stroke-linejoin="round"/>
<path d="M20.5 10.5C20.5 17.642 13 21.75 13 21.75C13 21.75 5.5 17.642 5.5 10.5C5.5 8.51088 6.29018 6.60322 7.6967 5.1967C9.10322 3.79018 11.0109 3 13 3C14.9891 3 16.8968 3.79018 18.3033 5.1967C19.7098 6.60322 20.5 8.51088 20.5 10.5Z" stroke="#CA2323" stroke-width="1.5" stroke-linecap="round" stroke-linejoin="round"/>
</svg>
