<svg width="48" height="48" viewBox="0 0 48 48" fill="none" xmlns="http://www.w3.org/2000/svg">
<rect x="-0.000244141" width="48" height="48" rx="24" fill="white"/>
<path d="M33.7498 18.75V29.25C33.7498 29.8467 33.5127 30.419 33.0907 30.841C32.6688 31.2629 32.0965 31.5 31.4998 31.5H16.4998C15.903 31.5 15.3307 31.2629 14.9088 30.841C14.4868 30.419 14.2498 29.8467 14.2498 29.25V18.75M33.7498 18.75C33.7498 18.1533 33.5127 17.581 33.0907 17.159C32.6688 16.7371 32.0965 16.5 31.4998 16.5H16.4998C15.903 16.5 15.3307 16.7371 14.9088 17.159C14.4868 17.581 14.2498 18.1533 14.2498 18.75M33.7498 18.75V18.993C33.7498 19.3771 33.6515 19.7549 33.4642 20.0903C33.2769 20.4257 33.0068 20.7075 32.6798 20.909L25.1798 25.524C24.825 25.7425 24.4165 25.8582 23.9998 25.8582C23.5831 25.8582 23.1745 25.7425 22.8198 25.524L15.3198 20.91C14.9927 20.7085 14.7226 20.4267 14.5353 20.0913C14.348 19.7559 14.2497 19.3781 14.2498 18.994V18.75" stroke="#C40202" stroke-width="1.5" stroke-linecap="round" stroke-linejoin="round"/>
</svg>
