<svg width="48" height="48" viewBox="0 0 48 48" fill="none" xmlns="http://www.w3.org/2000/svg">
<rect x="-0.000244141" width="48" height="48" rx="24" fill="white"/>
<path d="M22.4998 13.5H20.2498C19.653 13.5 19.0807 13.7371 18.6588 14.159C18.2368 14.581 17.9998 15.1533 17.9998 15.75V32.25C17.9998 32.8467 18.2368 33.419 18.6588 33.841C19.0807 34.2629 19.653 34.5 20.2498 34.5H27.7498C28.3465 34.5 28.9188 34.2629 29.3407 33.841C29.7627 33.419 29.9998 32.8467 29.9998 32.25V15.75C29.9998 15.1533 29.7627 14.581 29.3407 14.159C28.9188 13.7371 28.3465 13.5 27.7498 13.5H25.4998M22.4998 13.5V15H25.4998V13.5M22.4998 13.5H25.4998M22.4998 32.25H25.4998" stroke="#C40202" stroke-width="1.5" stroke-linecap="round" stroke-linejoin="round"/>
</svg>
