<svg width="41" height="40" viewBox="0 0 41 40" fill="none" xmlns="http://www.w3.org/2000/svg">
<rect x="0.75" width="40" height="40" rx="20" fill="white"/>
<path d="M17.75 25.25V26.257C17.75 26.6511 17.6724 27.0414 17.5216 27.4055C17.3708 27.7696 17.1497 28.1004 16.871 28.379L16.25 29H25.25L24.629 28.379C24.3503 28.1004 24.1292 27.7696 23.9784 27.4055C23.8276 27.0414 23.75 26.6511 23.75 26.257V25.25M29.75 13.25V23C29.75 23.5967 29.5129 24.169 29.091 24.591C28.669 25.0129 28.0967 25.25 27.5 25.25H14C13.4033 25.25 12.831 25.0129 12.409 24.591C11.9871 24.169 11.75 23.5967 11.75 23V13.25M29.75 13.25C29.75 12.6533 29.5129 12.081 29.091 11.659C28.669 11.2371 28.0967 11 27.5 11H14C13.4033 11 12.831 11.2371 12.409 11.659C11.9871 12.081 11.75 12.6533 11.75 13.25M29.75 13.25V20C29.75 20.5967 29.5129 21.169 29.091 21.591C28.669 22.0129 28.0967 22.25 27.5 22.25H14C13.4033 22.25 12.831 22.0129 12.409 21.591C11.9871 21.169 11.75 20.5967 11.75 20V13.25" stroke="url(#paint0_linear_593_3396)" stroke-width="1.5" stroke-linecap="round" stroke-linejoin="round"/>
<defs>
<linearGradient id="paint0_linear_593_3396" x1="32.1907" y1="29" x2="7.66473" y2="27.6239" gradientUnits="userSpaceOnUse">
<stop stop-color="#7F0102"/>
<stop offset="1" stop-color="#C90103"/>
</linearGradient>
</defs>
</svg>
