<svg width="41" height="40" viewBox="0 0 41 40" fill="none" xmlns="http://www.w3.org/2000/svg">
<path d="M29.9134 25.0599L26.4759 28.4974L24.3352 26.3567C24.218 26.2395 24.0589 26.1736 23.893 26.1736C23.7272 26.1736 23.5681 26.2395 23.4509 26.3567C23.3336 26.474 23.2677 26.6331 23.2677 26.7989C23.2677 26.9648 23.3336 27.1238 23.4509 27.2411L26.0352 29.8224C26.1519 29.9397 26.3104 30.006 26.4759 30.0067C26.5583 30.0068 26.64 29.9905 26.7162 29.9589C26.7923 29.9273 26.8615 29.8808 26.9196 29.8224L30.7977 25.938C30.8604 25.881 30.9108 25.8119 30.9459 25.7349C30.981 25.6579 31.0001 25.5745 31.0021 25.4899C31.004 25.4052 30.9887 25.3211 30.9572 25.2425C30.9256 25.1639 30.8784 25.0926 30.8184 25.0329C30.7584 24.9731 30.6869 24.9261 30.6083 24.8949C30.5296 24.8636 30.4454 24.8486 30.3608 24.8508C30.2761 24.853 30.1928 24.8724 30.1159 24.9078C30.039 24.9432 29.9701 24.9939 29.9134 25.0567V25.0599Z" fill="url(#paint0_linear_812_1103)"/>
<path d="M29.9376 5H10.5626C9.15366 5 7.8024 5.55971 6.80612 6.556C5.80983 7.55228 5.25012 8.90354 5.25012 10.3125V29.6875C5.25012 31.0965 5.80983 32.4477 6.80612 33.444C7.8024 34.4403 9.15366 35 10.5626 35H29.9376C31.3466 35 32.6978 34.4403 33.6941 33.444C34.6904 32.4477 35.2501 31.0965 35.2501 29.6875V10.3125C35.2501 8.90354 34.6904 7.55228 33.6941 6.556C32.6978 5.55971 31.3466 5 29.9376 5ZM34.0001 10.3125V19.375H29.6251C29.4594 19.375 29.3004 19.4408 29.1832 19.5581C29.066 19.6753 29.0001 19.8342 29.0001 20C29.0001 20.4973 28.8026 20.9742 28.4509 21.3258C28.0993 21.6775 27.6224 21.875 27.1251 21.875C26.6278 21.875 26.1509 21.6775 25.7993 21.3258C25.4477 20.9742 25.2501 20.4973 25.2501 20C25.2501 19.8342 25.1843 19.6753 25.0671 19.5581C24.9499 19.4408 24.7909 19.375 24.6251 19.375H20.8751V16.1875C21.5816 16.0441 22.2167 15.6608 22.6729 15.1027C23.129 14.5445 23.3783 13.8458 23.3783 13.125C23.3783 12.4042 23.129 11.7055 22.6729 11.1473C22.2167 10.5892 21.5816 10.2059 20.8751 10.0625V6.25H29.9376C31.0151 6.25 32.0484 6.67801 32.8102 7.43988C33.5721 8.20175 34.0001 9.23506 34.0001 10.3125ZM10.5626 6.25H19.6251V10.625C19.6251 10.7908 19.691 10.9497 19.8082 11.0669C19.9254 11.1842 20.0844 11.25 20.2501 11.25C20.7474 11.25 21.2243 11.4475 21.5759 11.7992C21.9276 12.1508 22.1251 12.6277 22.1251 13.125C22.1251 13.6223 21.9276 14.0992 21.5759 14.4508C21.2243 14.8025 20.7474 15 20.2501 15C20.0844 15 19.9254 15.0658 19.8082 15.1831C19.691 15.3003 19.6251 15.4592 19.6251 15.625V19.375H16.4376C16.2942 18.6686 15.9109 18.0335 15.3528 17.5773C14.7947 17.1211 14.096 16.8719 13.3751 16.8719C12.6543 16.8719 11.9556 17.1211 11.3975 17.5773C10.8393 18.0335 10.4561 18.6686 10.3126 19.375H6.50012V10.3125C6.50012 9.23506 6.92813 8.20175 7.69 7.43988C8.45187 6.67801 9.48518 6.25 10.5626 6.25ZM6.50012 29.6875V20.625H10.8751C11.0409 20.625 11.1999 20.5592 11.3171 20.4419C11.4343 20.3247 11.5001 20.1658 11.5001 20C11.5001 19.5027 11.6977 19.0258 12.0493 18.6742C12.4009 18.3225 12.8778 18.125 13.3751 18.125C13.8724 18.125 14.3493 18.3225 14.7009 18.6742C15.0526 19.0258 15.2501 19.5027 15.2501 20C15.2501 20.1658 15.316 20.3247 15.4332 20.4419C15.5504 20.5592 15.7094 20.625 15.8751 20.625H19.6251V23.8125C18.9187 23.9559 18.2836 24.3392 17.8274 24.8973C17.3712 25.4555 17.122 26.1542 17.122 26.875C17.122 27.5958 17.3712 28.2945 17.8274 28.8527C18.2836 29.4108 18.9187 29.7941 19.6251 29.9375V33.75H10.5626C9.48518 33.75 8.45187 33.322 7.69 32.5601C6.92813 31.7983 6.50012 30.7649 6.50012 29.6875ZM29.9376 33.75H20.8751V29.375C20.8751 29.2092 20.8093 29.0503 20.6921 28.9331C20.5749 28.8158 20.4159 28.75 20.2501 28.75C19.7528 28.75 19.2759 28.5525 18.9243 28.2008C18.5727 27.8492 18.3751 27.3723 18.3751 26.875C18.3751 26.3777 18.5727 25.9008 18.9243 25.5492C19.2759 25.1975 19.7528 25 20.2501 25C20.4159 25 20.5749 24.9342 20.6921 24.8169C20.8093 24.6997 20.8751 24.5408 20.8751 24.375V20.625H24.0626C24.2061 21.3314 24.5893 21.9665 25.1475 22.4227C25.7056 22.8789 26.4043 23.1281 27.1251 23.1281C27.846 23.1281 28.5447 22.8789 29.1028 22.4227C29.6609 21.9665 30.0442 21.3314 30.1876 20.625H34.0001V29.6875C34.0001 30.7649 33.5721 31.7983 32.8102 32.5601C32.0484 33.322 31.0151 33.75 29.9376 33.75Z" fill="#101F34"/>
<defs>
<linearGradient id="paint0_linear_812_1103" x1="32.051" y1="30.0067" x2="21.5535" y2="29.1232" gradientUnits="userSpaceOnUse">
<stop stop-color="#7F0102"/>
<stop offset="1" stop-color="#C90103"/>
</linearGradient>
</defs>
</svg>
