<svg width="26" height="20" viewBox="0 0 26 20" fill="none" xmlns="http://www.w3.org/2000/svg">
<path d="M5.19286 9.78C2.38929 9.78 0.5 7.79454 0.5 4.85272C0.5 2.20545 2.67143 -3.8147e-06 5.6125 -3.8147e-06C8.83393 -3.8147e-06 11.2143 2.64727 11.2143 6.69091C11.2143 15.8818 4.63214 19.5582 0.5 20V15.9564C3.30179 15.4418 6.45179 12.5745 6.59286 9.41091C6.45179 9.48363 5.89286 9.78 5.19286 9.78ZM19.4768 9.78C16.6768 9.78 14.7857 7.79454 14.7857 4.85272C14.7857 2.20545 16.9571 -3.8147e-06 19.8982 -3.8147e-06C23.1196 -3.8147e-06 25.5 2.64727 25.5 6.69091C25.5 15.8818 18.9179 19.5582 14.7857 20V15.9564C17.5875 15.4418 20.7375 12.5745 20.8786 9.41091C20.7375 9.48363 20.1786 9.78 19.4768 9.78Z" fill="#C5C5C5"/>
</svg>
