<svg width="41" height="40" viewBox="0 0 41 40" fill="none" xmlns="http://www.w3.org/2000/svg">
<rect x="0.25" width="40" height="40" rx="20" fill="url(#paint0_linear_851_592)"/>
<path d="M28.5 22.15V26.4C28.5 27.494 27.713 28.436 26.628 28.58C24.541 28.857 22.412 29 20.25 29C18.088 29 15.959 28.857 13.872 28.58C12.787 28.436 12 27.494 12 26.4V22.15M28.5 22.15C28.7375 21.9436 28.9274 21.6883 29.0569 21.4016C29.1864 21.1149 29.2522 20.8036 29.25 20.489V16.706C29.25 15.625 28.482 14.691 27.413 14.531C26.2803 14.3614 25.1419 14.2323 24 14.144M28.5 22.15C28.306 22.315 28.08 22.445 27.827 22.53C25.3832 23.3408 22.8248 23.7528 20.25 23.75C17.602 23.75 15.055 23.321 12.673 22.53C12.4263 22.4479 12.1977 22.3189 12 22.15M12 22.15C11.7625 21.9436 11.5726 21.6883 11.4431 21.4016C11.3136 21.1149 11.2478 20.8036 11.25 20.489V16.706C11.25 15.625 12.018 14.691 13.087 14.531C14.2197 14.3614 15.3581 14.2323 16.5 14.144M24 14.144V13.25C24 12.6533 23.7629 12.081 23.341 11.659C22.919 11.2371 22.3467 11 21.75 11H18.75C18.1533 11 17.581 11.2371 17.159 11.659C16.737 12.081 16.5 12.6533 16.5 13.25V14.144M24 14.144C21.5037 13.9511 18.9963 13.9511 16.5 14.144M20.25 20.75H20.258V20.758H20.25V20.75Z" stroke="white" stroke-width="1.5" stroke-linecap="round" stroke-linejoin="round"/>
<defs>
<linearGradient id="paint0_linear_851_592" x1="45.6737" y1="40" x2="-8.82837" y2="36.942" gradientUnits="userSpaceOnUse">
<stop stop-color="#7F0102"/>
<stop offset="1" stop-color="#C90103"/>
</linearGradient>
</defs>
</svg>
