<svg width="41" height="40" viewBox="0 0 41 40" fill="none" xmlns="http://www.w3.org/2000/svg">
<rect x="0.25" width="40" height="40" rx="20" fill="url(#paint0_linear_851_627)"/>
<path d="M25.308 23.146C25.7758 22.8265 26.3245 22.6461 26.8905 22.6254C27.4566 22.6048 28.017 22.7449 28.5068 23.0294C28.9966 23.314 29.3958 23.7314 29.6583 24.2334C29.9208 24.7354 30.0358 25.3014 29.99 25.866C28.7902 26.2853 27.5157 26.4485 26.249 26.345C26.2451 25.2116 25.9187 24.1018 25.308 23.147C24.7659 22.2968 24.0181 21.597 23.1338 21.1125C22.2495 20.628 21.2573 20.3743 20.249 20.375C19.2408 20.3745 18.2488 20.6282 17.3647 21.1127C16.4806 21.5973 15.733 22.2969 15.191 23.147M26.248 26.344L26.249 26.375C26.249 26.6 26.237 26.822 26.212 27.041C24.3973 28.0821 22.3411 28.6283 20.249 28.625C18.079 28.625 16.042 28.049 14.286 27.041C14.2603 26.8096 14.2479 26.5769 14.249 26.344M14.249 26.344C12.9826 26.4513 11.7089 26.2887 10.51 25.867C10.4643 25.3026 10.5794 24.7367 10.8418 24.2349C11.1042 23.7331 11.5033 23.3158 11.993 23.0313C12.4826 22.7468 13.0428 22.6067 13.6087 22.6271C14.1746 22.6476 14.7232 22.8278 15.191 23.147M14.249 26.344C14.2526 25.2107 14.5806 24.1019 15.191 23.147M23.249 14.375C23.249 15.1706 22.9329 15.9337 22.3703 16.4963C21.8077 17.0589 21.0446 17.375 20.249 17.375C19.4533 17.375 18.6903 17.0589 18.1277 16.4963C17.565 15.9337 17.249 15.1706 17.249 14.375C17.249 13.5794 17.565 12.8163 18.1277 12.2537C18.6903 11.6911 19.4533 11.375 20.249 11.375C21.0446 11.375 21.8077 11.6911 22.3703 12.2537C22.9329 12.8163 23.249 13.5794 23.249 14.375ZM29.249 17.375C29.249 17.6705 29.1908 17.9631 29.0777 18.236C28.9646 18.509 28.7989 18.7571 28.59 18.966C28.381 19.1749 28.133 19.3407 27.86 19.4537C27.587 19.5668 27.2945 19.625 26.999 19.625C26.7035 19.625 26.4109 19.5668 26.1379 19.4537C25.865 19.3407 25.6169 19.1749 25.408 18.966C25.1991 18.7571 25.0333 18.509 24.9202 18.236C24.8072 17.9631 24.749 17.6705 24.749 17.375C24.749 16.7783 24.986 16.206 25.408 15.784C25.8299 15.3621 26.4022 15.125 26.999 15.125C27.5957 15.125 28.168 15.3621 28.59 15.784C29.0119 16.206 29.249 16.7783 29.249 17.375ZM15.749 17.375C15.749 17.6705 15.6908 17.9631 15.5777 18.236C15.4646 18.509 15.2989 18.7571 15.09 18.966C14.881 19.1749 14.633 19.3407 14.36 19.4537C14.087 19.5668 13.7945 19.625 13.499 19.625C13.2035 19.625 12.9109 19.5668 12.6379 19.4537C12.365 19.3407 12.1169 19.1749 11.908 18.966C11.6991 18.7571 11.5333 18.509 11.4202 18.236C11.3072 17.9631 11.249 17.6705 11.249 17.375C11.249 16.7783 11.486 16.206 11.908 15.784C12.3299 15.3621 12.9022 15.125 13.499 15.125C14.0957 15.125 14.668 15.3621 15.09 15.784C15.5119 16.206 15.749 16.7783 15.749 17.375Z" stroke="white" stroke-width="1.5" stroke-linecap="round" stroke-linejoin="round"/>
<defs>
<linearGradient id="paint0_linear_851_627" x1="45.6737" y1="40" x2="-8.82837" y2="36.942" gradientUnits="userSpaceOnUse">
<stop stop-color="#7F0102"/>
<stop offset="1" stop-color="#C90103"/>
</linearGradient>
</defs>
</svg>
