<svg width="41" height="40" viewBox="0 0 41 40" fill="none" xmlns="http://www.w3.org/2000/svg">
<rect x="0.90625" width="40" height="40" rx="20" fill="white"/>
<path d="M18.4362 24.122C18.1746 23.477 17.6969 22.9431 17.0849 22.6116C16.4729 22.2802 15.7647 22.1718 15.0816 22.3052C14.3985 22.4385 13.783 22.8051 13.3405 23.3424C12.8981 23.8796 12.6561 24.554 12.6562 25.25C12.6562 25.5581 12.5929 25.8629 12.4703 26.1455C12.3477 26.4282 12.1683 26.6826 11.9433 26.8931C11.7183 27.1036 11.4524 27.2656 11.1622 27.3691C10.872 27.4727 10.5637 27.5155 10.2562 27.495C10.7507 28.3539 11.5149 29.0256 12.4301 29.4058C13.3454 29.7859 14.3606 29.8533 15.3181 29.5974C16.2756 29.3415 17.1218 28.7766 17.7254 27.9905C18.329 27.2044 18.6562 26.241 18.6562 25.25C18.6562 24.851 18.5782 24.47 18.4362 24.122ZM18.4362 24.122C19.6252 23.7168 20.7624 23.1731 21.8242 22.502M16.7812 22.477C17.1864 21.2854 17.7309 20.1459 18.4032 19.082M21.8232 22.502C23.7196 21.3038 25.3427 19.7202 26.5872 17.854L30.4632 12.04C30.6117 11.8185 30.6787 11.5524 30.6528 11.287C30.6269 11.0217 30.5097 10.7736 30.3211 10.585C30.1326 10.3965 29.8845 10.2793 29.6191 10.2534C29.3538 10.2275 29.0877 10.2945 28.8662 10.443L23.0522 14.32C21.1857 15.5641 19.6018 17.1869 18.4032 19.083C19.9251 19.7634 21.1428 20.9811 21.8232 22.503" stroke="url(#paint0_linear_1045_2327)" stroke-width="1.5" stroke-linecap="round" stroke-linejoin="round"/>
<defs>
<linearGradient id="paint0_linear_1045_2327" x1="33.4246" y1="29.75" x2="5.63403" y2="28.1187" gradientUnits="userSpaceOnUse">
<stop stop-color="#7F0102"/>
<stop offset="1" stop-color="#C90103"/>
</linearGradient>
</defs>
</svg>
