<svg width="40" height="40" viewBox="0 0 40 40" fill="none" xmlns="http://www.w3.org/2000/svg">
<rect width="40" height="40" rx="20" fill="white"/>
<path d="M17 25.25V26.257C17 26.6511 16.9224 27.0414 16.7716 27.4055C16.6208 27.7696 16.3997 28.1004 16.121 28.379L15.5 29H24.5L23.879 28.379C23.6003 28.1004 23.3792 27.7696 23.2284 27.4055C23.0776 27.0414 23 26.6511 23 26.257V25.25M29 13.25V23C29 23.5967 28.7629 24.169 28.341 24.591C27.919 25.0129 27.3467 25.25 26.75 25.25H13.25C12.6533 25.25 12.081 25.0129 11.659 24.591C11.2371 24.169 11 23.5967 11 23V13.25M29 13.25C29 12.6533 28.7629 12.081 28.341 11.659C27.919 11.2371 27.3467 11 26.75 11H13.25C12.6533 11 12.081 11.2371 11.659 11.659C11.2371 12.081 11 12.6533 11 13.25M29 13.25V20C29 20.5967 28.7629 21.169 28.341 21.591C27.919 22.0129 27.3467 22.25 26.75 22.25H13.25C12.6533 22.25 12.081 22.0129 11.659 21.591C11.2371 21.169 11 20.5967 11 20V13.25" stroke="url(#paint0_linear_1045_2346)" stroke-width="1.5" stroke-linecap="round" stroke-linejoin="round"/>
<defs>
<linearGradient id="paint0_linear_1045_2346" x1="31.4407" y1="29" x2="6.91473" y2="27.6239" gradientUnits="userSpaceOnUse">
<stop stop-color="#7F0102"/>
<stop offset="1" stop-color="#C90103"/>
</linearGradient>
</defs>
</svg>
