<svg width="33" height="33" viewBox="0 0 33 33" fill="none" xmlns="http://www.w3.org/2000/svg">
<g clip-path="url(#clip0_401_2900)">
<path d="M30.217 33H2.78575C1.2375 33 0 31.7625 0 30.217V2.78575C0 1.2375 1.2375 0 2.78438 0H30.3187C31.7625 0 33 1.2375 33 2.78438V30.2156C33 31.7625 31.7625 33 30.217 33ZM16.5 5.46562H12.375C10.5425 5.46562 8.78509 6.19357 7.48933 7.48933C6.19357 8.78509 5.46562 10.5425 5.46562 12.375V20.625C5.46599 22.4572 6.1941 24.2143 7.48982 25.5098C8.78554 26.8052 10.5428 27.533 12.375 27.533H20.625C22.457 27.5326 24.2139 26.8047 25.5093 25.5093C26.8047 24.2139 27.5326 22.457 27.533 20.625V15.1594C27.533 14.3344 26.9143 13.7156 26.0893 13.7156H24.75C24.3962 13.7089 24.0587 13.5654 23.8085 13.3152C23.5582 13.0649 23.4147 12.7275 23.408 12.3736C23.4082 11.4663 23.2296 10.5678 22.8826 9.72942C22.5355 8.89106 22.0267 8.12928 21.3853 7.48756C20.7438 6.84583 19.9822 6.33674 19.144 5.98935C18.3058 5.64195 17.4074 5.46306 16.5 5.46287V5.46562ZM20.7268 21.9656H12.375C11.6531 21.9656 11.0344 21.3469 11.0344 20.625C11.0344 19.9031 11.6531 19.283 12.375 19.283H20.7268C21.45 19.283 22.0701 19.9018 22.0701 20.625C22.0701 21.3482 21.4514 21.967 20.7295 21.967L20.7268 21.9656ZM17.2205 11.0344C17.9451 11.0344 18.5625 11.6531 18.5625 12.375C18.5625 13.0969 17.9438 13.7156 17.2219 13.7156H12.2719C11.55 13.7156 10.9299 13.0969 10.9299 12.375C10.9299 11.6531 11.5486 11.0344 12.2705 11.0344H17.2205Z" fill="url(#paint0_linear_401_2900)"/>
</g>
<defs>
<linearGradient id="paint0_linear_401_2900" x1="37.4746" y1="33" x2="-7.48966" y2="30.4772" gradientUnits="userSpaceOnUse">
<stop stop-color="#7F0102"/>
<stop offset="1" stop-color="#C90103"/>
</linearGradient>
<clipPath id="clip0_401_2900">
<rect width="33" height="33" fill="white"/>
</clipPath>
</defs>
</svg>
