<svg width="22" height="19" viewBox="0 0 22 19" fill="none" xmlns="http://www.w3.org/2000/svg">
<path d="M16.507 12.7593C16.9748 12.4398 17.5235 12.2593 18.0895 12.2387C18.6556 12.2181 19.216 12.3581 19.7058 12.6427C20.1956 12.9273 20.5948 13.3447 20.8573 13.8467C21.1198 14.3486 21.2348 14.9147 21.189 15.4793C19.9892 15.8986 18.7148 16.0618 17.448 15.9583C17.4441 14.8249 17.1177 13.715 16.507 12.7603C15.9649 11.9101 15.2171 11.2103 14.3328 10.7258C13.4485 10.2413 12.4563 9.9876 11.448 9.98828C10.4398 9.98776 9.44781 10.2415 8.56371 10.726C7.67962 11.2105 6.93199 11.9102 6.38998 12.7603M17.447 15.9573L17.448 15.9883C17.448 16.2133 17.436 16.4353 17.411 16.6543C15.5963 17.6954 13.5401 18.2416 11.448 18.2383C9.27798 18.2383 7.24098 17.6623 5.48498 16.6543C5.45927 16.4229 5.44692 16.1901 5.44798 15.9573M5.44798 15.9573C4.18161 16.0645 2.90789 15.902 1.70898 15.4803C1.66333 14.9158 1.77838 14.35 2.04081 13.8482C2.30325 13.3464 2.70235 12.9291 3.19199 12.6446C3.68162 12.3601 4.24178 12.2199 4.8077 12.2404C5.37362 12.2609 5.92219 12.4411 6.38998 12.7603M5.44798 15.9573C5.45158 14.824 5.77961 13.7151 6.38998 12.7603M14.448 3.98828C14.448 4.78393 14.1319 5.54699 13.5693 6.1096C13.0067 6.67221 12.2436 6.98828 11.448 6.98828C10.6523 6.98828 9.88927 6.67221 9.32666 6.1096C8.76405 5.54699 8.44798 4.78393 8.44798 3.98828C8.44798 3.19263 8.76405 2.42957 9.32666 1.86696C9.88927 1.30435 10.6523 0.988281 11.448 0.988281C12.2436 0.988281 13.0067 1.30435 13.5693 1.86696C14.1319 2.42957 14.448 3.19263 14.448 3.98828ZM20.448 6.98828C20.448 7.28376 20.3898 7.57634 20.2767 7.84932C20.1636 8.1223 19.9979 8.37034 19.789 8.57927C19.58 8.7882 19.332 8.95394 19.059 9.06701C18.786 9.18008 18.4935 9.23828 18.198 9.23828C17.9025 9.23828 17.6099 9.18008 17.3369 9.06701C17.064 8.95394 16.8159 8.7882 16.607 8.57927C16.3981 8.37034 16.2323 8.1223 16.1193 7.84932C16.0062 7.57634 15.948 7.28376 15.948 6.98828C15.948 6.39154 16.185 5.81925 16.607 5.39729C17.0289 4.97533 17.6012 4.73828 18.198 4.73828C18.7947 4.73828 19.367 4.97533 19.789 5.39729C20.2109 5.81925 20.448 6.39154 20.448 6.98828ZM6.94798 6.98828C6.94798 7.28376 6.88979 7.57634 6.77671 7.84932C6.66364 8.1223 6.49791 8.37034 6.28897 8.57927C6.08004 8.7882 5.832 8.95394 5.55902 9.06701C5.28604 9.18008 4.99346 9.23828 4.69798 9.23828C4.40251 9.23828 4.10993 9.18008 3.83695 9.06701C3.56396 8.95394 3.31592 8.7882 3.10699 8.57927C2.89806 8.37034 2.73233 8.1223 2.61925 7.84932C2.50618 7.57634 2.44798 7.28376 2.44798 6.98828C2.44798 6.39154 2.68504 5.81925 3.10699 5.39729C3.52895 4.97533 4.10125 4.73828 4.69798 4.73828C5.29472 4.73828 5.86702 4.97533 6.28897 5.39729C6.71093 5.81925 6.94798 6.39154 6.94798 6.98828Z" stroke="#C71A1A" stroke-width="1.5" stroke-linecap="round" stroke-linejoin="round"/>
</svg>
