<svg width="41" height="40" viewBox="0 0 41 40" fill="none" xmlns="http://www.w3.org/2000/svg">
<path d="M35.7284 7.5H32.6034V4.375C32.6034 3.5462 32.2742 2.75134 31.6881 2.16529C31.1021 1.57924 30.3072 1.25 29.4784 1.25H10.7284C9.89959 1.25 9.10474 1.57924 8.51868 2.16529C7.93263 2.75134 7.60339 3.5462 7.60339 4.375V7.5H4.47839C3.64959 7.5 2.85474 7.82924 2.26868 8.41529C1.68263 9.00134 1.35339 9.7962 1.35339 10.625V29.375C1.35339 30.2038 1.68263 30.9987 2.26868 31.5847C2.85474 32.1708 3.64959 32.5 4.47839 32.5H12.9284L10.9284 37.5H8.22839C8.06263 37.5 7.90366 37.5658 7.78645 37.6831C7.66924 37.8003 7.60339 37.9592 7.60339 38.125C7.60339 38.2908 7.66924 38.4497 7.78645 38.5669C7.90366 38.6842 8.06263 38.75 8.22839 38.75H31.9784C32.1442 38.75 32.3031 38.6842 32.4203 38.5669C32.5375 38.4497 32.6034 38.2908 32.6034 38.125C32.6034 37.9592 32.5375 37.8003 32.4203 37.6831C32.3031 37.5658 32.1442 37.5 31.9784 37.5H29.2784L27.2784 32.5H35.7284C36.5572 32.5 37.3521 32.1708 37.9381 31.5847C38.5242 30.9987 38.8534 30.2038 38.8534 29.375V10.625C38.8534 9.7962 38.5242 9.00134 37.9381 8.41529C37.3521 7.82924 36.5572 7.5 35.7284 7.5ZM8.85339 4.375C8.85339 3.87772 9.05094 3.40081 9.40257 3.04917C9.7542 2.69754 10.2311 2.5 10.7284 2.5H29.4784C29.9757 2.5 30.4526 2.69754 30.8042 3.04917C31.1558 3.40081 31.3534 3.87772 31.3534 4.375V21.875C31.3534 22.3723 31.1558 22.8492 30.8042 23.2008C30.4526 23.5525 29.9757 23.75 29.4784 23.75H10.7284C10.2311 23.75 9.7542 23.5525 9.40257 23.2008C9.05094 22.8492 8.85339 22.3723 8.85339 21.875V4.375ZM27.9284 37.5H12.2784L14.2784 32.5H25.9284L27.9284 37.5ZM37.6034 29.375C37.6034 29.8723 37.4058 30.3492 37.0542 30.7008C36.7026 31.0525 36.2257 31.25 35.7284 31.25H4.47839C3.98111 31.25 3.5042 31.0525 3.15257 30.7008C2.80094 30.3492 2.60339 29.8723 2.60339 29.375V10.625C2.60339 10.1277 2.80094 9.65081 3.15257 9.29917C3.5042 8.94754 3.98111 8.75 4.47839 8.75H7.60339V21.875C7.60339 22.7038 7.93263 23.4987 8.51868 24.0847C9.10474 24.6708 9.89959 25 10.7284 25H29.4784C30.3072 25 31.1021 24.6708 31.6881 24.0847C32.2742 23.4987 32.6034 22.7038 32.6034 21.875V8.75H35.7284C36.2257 8.75 36.7026 8.94754 37.0542 9.29917C37.4058 9.65081 37.6034 10.1277 37.6034 10.625V29.375Z" fill="#101F34"/>
<path d="M13.2284 20.625H14.4784C14.9757 20.625 15.4526 20.4275 15.8042 20.0758C16.1558 19.7242 16.3534 19.2473 16.3534 18.75V15C16.3534 14.5027 16.1558 14.0258 15.8042 13.6742C15.4526 13.3225 14.9757 13.125 14.4784 13.125V11.875C14.4784 10.3832 15.071 8.95242 16.1259 7.89752C17.1808 6.84263 18.6116 6.25 20.1034 6.25C21.5952 6.25 23.026 6.84263 24.0809 7.89752C25.1358 8.95242 25.7284 10.3832 25.7284 11.875V13.125C25.2311 13.125 24.7542 13.3225 24.4026 13.6742C24.0509 14.0258 23.8534 14.5027 23.8534 15V18.75C23.8534 19.2473 24.0509 19.7242 24.4026 20.0758C24.7542 20.4275 25.2311 20.625 25.7284 20.625H26.9784C27.4757 20.625 27.9526 20.4275 28.3042 20.0758C28.6558 19.7242 28.8534 19.2473 28.8534 18.75V15C28.8534 14.5027 28.6558 14.0258 28.3042 13.6742C27.9526 13.3225 27.4757 13.125 26.9784 13.125V11.875C26.9784 10.0516 26.2541 8.30295 24.9648 7.01364C23.6754 5.72433 21.9268 5 20.1034 5C18.28 5 16.5313 5.72433 15.242 7.01364C13.9527 8.30295 13.2284 10.0516 13.2284 11.875V13.125C12.7311 13.125 12.2542 13.3225 11.9026 13.6742C11.5509 14.0258 11.3534 14.5027 11.3534 15V18.75C11.3534 19.2473 11.5509 19.7242 11.9026 20.0758C12.2542 20.4275 12.7311 20.625 13.2284 20.625ZM27.6034 15V18.75C27.6034 18.9158 27.5375 19.0747 27.4203 19.1919C27.3031 19.3092 27.1442 19.375 26.9784 19.375H25.7284C25.5626 19.375 25.4037 19.3092 25.2865 19.1919C25.1692 19.0747 25.1034 18.9158 25.1034 18.75V15C25.1034 14.8342 25.1692 14.6753 25.2865 14.5581C25.4037 14.4408 25.5626 14.375 25.7284 14.375H26.9784C27.1442 14.375 27.3031 14.4408 27.4203 14.5581C27.5375 14.6753 27.6034 14.8342 27.6034 15ZM12.6034 15C12.6034 14.8342 12.6692 14.6753 12.7865 14.5581C12.9037 14.4408 13.0626 14.375 13.2284 14.375H14.4784C14.6442 14.375 14.8031 14.4408 14.9203 14.5581C15.0375 14.6753 15.1034 14.8342 15.1034 15V18.75C15.1034 18.9158 15.0375 19.0747 14.9203 19.1919C14.8031 19.3092 14.6442 19.375 14.4784 19.375H13.2284C13.0626 19.375 12.9037 19.3092 12.7865 19.1919C12.6692 19.0747 12.6034 18.9158 12.6034 18.75V15Z" fill="url(#paint0_linear_812_1095)"/>
<defs>
<linearGradient id="paint0_linear_812_1095" x1="31.2263" y1="20.625" x2="7.40063" y2="19.1278" gradientUnits="userSpaceOnUse">
<stop stop-color="#7F0102"/>
<stop offset="1" stop-color="#C90103"/>
</linearGradient>
</defs>
</svg>
