<svg width="41" height="40" viewBox="0 0 41 40" fill="none" xmlns="http://www.w3.org/2000/svg">
<rect x="0.75" width="40" height="40" rx="20" fill="white"/>
<path d="M25.808 23.146C26.2758 22.8265 26.8245 22.6461 27.3906 22.6254C27.9567 22.6048 28.517 22.7449 29.0068 23.0294C29.4966 23.314 29.8959 23.7314 30.1583 24.2334C30.4208 24.7354 30.5358 25.3014 30.49 25.866C29.2902 26.2853 28.0158 26.4485 26.749 26.345C26.7451 25.2116 26.4187 24.1018 25.808 23.147C25.2659 22.2968 24.5181 21.597 23.6338 21.1125C22.7496 20.628 21.7573 20.3743 20.749 20.375C19.7408 20.3745 18.7488 20.6282 17.8647 21.1127C16.9806 21.5973 16.233 22.2969 15.691 23.147M26.748 26.344L26.749 26.375C26.749 26.6 26.737 26.822 26.712 27.041C24.8974 28.0821 22.8411 28.6283 20.749 28.625C18.579 28.625 16.542 28.049 14.786 27.041C14.7603 26.8096 14.7479 26.5769 14.749 26.344M14.749 26.344C13.4826 26.4513 12.2089 26.2887 11.01 25.867C10.9644 25.3026 11.0794 24.7367 11.3418 24.2349C11.6043 23.7331 12.0034 23.3158 12.493 23.0313C12.9826 22.7468 13.5428 22.6067 14.1087 22.6271C14.6746 22.6476 15.2232 22.8278 15.691 23.147M14.749 26.344C14.7526 25.2107 15.0806 24.1019 15.691 23.147M23.749 14.375C23.749 15.1706 23.4329 15.9337 22.8703 16.4963C22.3077 17.0589 21.5447 17.375 20.749 17.375C19.9534 17.375 19.1903 17.0589 18.6277 16.4963C18.0651 15.9337 17.749 15.1706 17.749 14.375C17.749 13.5794 18.0651 12.8163 18.6277 12.2537C19.1903 11.6911 19.9534 11.375 20.749 11.375C21.5447 11.375 22.3077 11.6911 22.8703 12.2537C23.4329 12.8163 23.749 13.5794 23.749 14.375ZM29.749 17.375C29.749 17.6705 29.6908 17.9631 29.5777 18.236C29.4647 18.509 29.2989 18.7571 29.09 18.966C28.8811 19.1749 28.633 19.3407 28.36 19.4537C28.0871 19.5668 27.7945 19.625 27.499 19.625C27.2035 19.625 26.911 19.5668 26.638 19.4537C26.365 19.3407 26.1169 19.1749 25.908 18.966C25.6991 18.7571 25.5334 18.509 25.4203 18.236C25.3072 17.9631 25.249 17.6705 25.249 17.375C25.249 16.7783 25.4861 16.206 25.908 15.784C26.33 15.3621 26.9023 15.125 27.499 15.125C28.0957 15.125 28.668 15.3621 29.09 15.784C29.512 16.206 29.749 16.7783 29.749 17.375ZM16.249 17.375C16.249 17.6705 16.1908 17.9631 16.0777 18.236C15.9647 18.509 15.7989 18.7571 15.59 18.966C15.3811 19.1749 15.133 19.3407 14.86 19.4537C14.5871 19.5668 14.2945 19.625 13.999 19.625C13.7035 19.625 13.411 19.5668 13.138 19.4537C12.865 19.3407 12.617 19.1749 12.408 18.966C12.1991 18.7571 12.0334 18.509 11.9203 18.236C11.8072 17.9631 11.749 17.6705 11.749 17.375C11.749 16.7783 11.9861 16.206 12.408 15.784C12.83 15.3621 13.4023 15.125 13.999 15.125C14.5957 15.125 15.168 15.3621 15.59 15.784C16.012 16.206 16.249 16.7783 16.249 17.375Z" stroke="url(#paint0_linear_593_3414)" stroke-width="1.5" stroke-linecap="round" stroke-linejoin="round"/>
<defs>
<linearGradient id="paint0_linear_593_3414" x1="33.1438" y1="28.625" x2="6.59777" y2="26.9413" gradientUnits="userSpaceOnUse">
<stop stop-color="#7F0102"/>
<stop offset="1" stop-color="#C90103"/>
</linearGradient>
</defs>
</svg>
