<svg width="41" height="40" viewBox="0 0 41 40" fill="none" xmlns="http://www.w3.org/2000/svg">
<rect x="0.75" width="40" height="40" rx="20" fill="white"/>
<path d="M23.7508 27.128C24.6037 27.3757 25.4876 27.5009 26.3758 27.5C27.8042 27.5021 29.214 27.1764 30.4968 26.548C30.5347 25.6517 30.2794 24.7675 29.7695 24.0293C29.2597 23.2912 28.5231 22.7394 27.6715 22.4575C26.8198 22.1757 25.8994 22.1791 25.0499 22.4674C24.2004 22.7557 23.468 23.313 22.9638 24.055M23.7508 27.128V27.125C23.7508 26.012 23.4648 24.965 22.9638 24.055M23.7508 27.128V27.234C21.8262 28.3931 19.6214 29.0038 17.3748 29C15.0438 29 12.8628 28.355 11.0008 27.234L10.9998 27.125C10.999 25.7095 11.4694 24.3339 12.3367 23.2153C13.2041 22.0966 14.4191 21.2984 15.7902 20.9466C17.1614 20.5948 18.6106 20.7093 19.9094 21.2721C21.2083 21.8349 22.2828 22.814 22.9638 24.055M20.7508 14.375C20.7508 15.2701 20.3952 16.1285 19.7622 16.7615C19.1293 17.3944 18.2709 17.75 17.3758 17.75C16.4807 17.75 15.6222 17.3944 14.9893 16.7615C14.3563 16.1285 14.0008 15.2701 14.0008 14.375C14.0008 13.4799 14.3563 12.6214 14.9893 11.9885C15.6222 11.3556 16.4807 11 17.3758 11C18.2709 11 19.1293 11.3556 19.7622 11.9885C20.3952 12.6214 20.7508 13.4799 20.7508 14.375ZM29.0008 16.625C29.0008 17.3212 28.7242 17.9889 28.2319 18.4812C27.7396 18.9734 27.0719 19.25 26.3758 19.25C25.6796 19.25 25.0119 18.9734 24.5196 18.4812C24.0273 17.9889 23.7508 17.3212 23.7508 16.625C23.7508 15.9288 24.0273 15.2611 24.5196 14.7688C25.0119 14.2766 25.6796 14 26.3758 14C27.0719 14 27.7396 14.2766 28.2319 14.7688C28.7242 15.2611 29.0008 15.9288 29.0008 16.625Z" stroke="url(#paint0_linear_593_3372)" stroke-width="1.5" stroke-linecap="round" stroke-linejoin="round"/>
<defs>
<linearGradient id="paint0_linear_593_3372" x1="33.1446" y1="29" x2="6.58837" y2="27.3858" gradientUnits="userSpaceOnUse">
<stop stop-color="#7F0102"/>
<stop offset="1" stop-color="#C90103"/>
</linearGradient>
</defs>
</svg>
