<svg width="41" height="40" viewBox="0 0 41 40" fill="none" xmlns="http://www.w3.org/2000/svg">
<g clip-path="url(#clip0_812_1111)">
<path d="M37.1709 10.3226H30.7193C30.7193 8.18774 28.9832 6.45161 26.8483 6.45161C24.7135 6.45161 22.9774 8.18774 22.9774 10.3226H14.578C15.3916 9.24258 15.8806 7.90516 15.8806 6.45161C15.8806 2.89419 12.9864 0 9.42899 0C5.87157 0 2.97737 2.89419 2.97737 6.45161C2.97737 7.90516 3.46641 9.24258 4.27995 10.3226H3.62253C1.84383 10.3226 0.396729 11.7697 0.396729 13.5484V32.9032C0.396729 34.6819 1.84383 36.129 3.62253 36.129H10.7193V38.7097H8.13866V40H32.6548V38.7097H30.0741V36.129H37.1709C38.9496 36.129 40.3967 34.6819 40.3967 32.9032V13.5484C40.3967 11.7697 38.9496 10.3226 37.1709 10.3226ZM26.8483 7.74194C28.2716 7.74194 29.429 8.89935 29.429 10.3226C29.429 11.7458 28.2716 12.9032 26.8483 12.9032C25.4251 12.9032 24.2677 11.7458 24.2677 10.3226C24.2677 8.89935 25.4251 7.74194 26.8483 7.74194ZM23.2032 11.6129C23.3783 12.1053 23.6513 12.5572 24.0058 12.9413L18.6238 18.8613C17.8283 18.36 16.889 18.0645 15.8806 18.0645C15.3135 18.0645 14.7696 18.16 14.2587 18.3297L12.0767 12.3284C12.5101 12.1317 12.9203 11.8876 13.3 11.6006V11.6129H23.2032ZM19.7516 23.2258C19.7516 25.3606 18.0154 27.0968 15.8806 27.0968C13.7458 27.0968 12.0096 25.3606 12.0096 23.2258C12.0096 21.091 13.7458 19.3548 15.8806 19.3548C18.0154 19.3548 19.7516 21.091 19.7516 23.2258ZM4.2677 6.45161C4.2677 3.60581 6.58318 1.29032 9.42899 1.29032C12.2748 1.29032 14.5903 3.60581 14.5903 6.45161C14.5903 9.29742 12.2748 11.6129 9.42899 11.6129C6.58318 11.6129 4.2677 9.29742 4.2677 6.45161ZM28.7838 38.7097H12.0096V36.129H28.7838V38.7097ZM39.1064 32.9032C39.1064 33.9703 38.238 34.8387 37.1709 34.8387H3.62253C2.55544 34.8387 1.68705 33.9703 1.68705 32.9032V32.2581H39.1064V32.9032ZM39.1064 30.9677H1.68705V13.5484C1.68705 12.4813 2.55544 11.6129 3.62253 11.6129H5.55802V11.6006C6.63802 12.4142 7.97544 12.9032 9.42899 12.9032C9.91866 12.9032 10.3941 12.8432 10.8529 12.7394L13.0896 18.8903C11.6658 19.8103 10.7193 21.4084 10.7193 23.2258C10.7193 26.0716 13.0348 28.3871 15.8806 28.3871C18.7264 28.3871 21.0419 26.0716 21.0419 23.2258C21.0419 21.8529 20.5 20.6071 19.6225 19.6813L25.0271 13.7361C25.5869 14.037 26.2127 14.1942 26.8483 14.1935C27.709 14.1935 28.5019 13.9077 29.1451 13.4316L32.998 16.8032C32.7858 17.1774 32.6548 17.6039 32.6548 18.0645C32.6548 19.4877 33.8122 20.6452 35.2354 20.6452C36.6587 20.6452 37.8161 19.4877 37.8161 18.0645C37.8161 16.6413 36.6587 15.4839 35.2354 15.4839C34.7419 15.4839 34.2851 15.6303 33.8929 15.871L30.0438 12.5032C30.2309 12.2297 30.3806 11.9303 30.4935 11.6129H37.1709C38.238 11.6129 39.1064 12.4813 39.1064 13.5484V30.9677ZM33.9451 18.0645C33.9451 17.3529 34.5238 16.7742 35.2354 16.7742C35.947 16.7742 36.5258 17.3529 36.5258 18.0645C36.5258 18.7761 35.947 19.3548 35.2354 19.3548C34.5238 19.3548 33.9451 18.7761 33.9451 18.0645Z" fill="#101F34"/>
<path d="M36.5261 28.3873H37.8164V29.6776H36.5261V28.3873ZM30.0745 28.3873H35.2358V29.6776H30.0745V28.3873ZM30.0745 25.8066H37.8164V27.097H30.0745V25.8066Z" fill="url(#paint0_linear_812_1111)"/>
</g>
<defs>
<linearGradient id="paint0_linear_812_1111" x1="38.8662" y1="29.6776" x2="28.4157" y2="28.5049" gradientUnits="userSpaceOnUse">
<stop stop-color="#7F0102"/>
<stop offset="1" stop-color="#C90103"/>
</linearGradient>
<clipPath id="clip0_812_1111">
<rect width="40" height="40" fill="white" transform="translate(0.396729)"/>
</clipPath>
</defs>
</svg>
