<svg width="41" height="40" viewBox="0 0 41 40" fill="none" xmlns="http://www.w3.org/2000/svg">
<rect x="0.75" width="40" height="40" rx="20" fill="white"/>
<path d="M20.17 23.17L26 29C26.5 29.484 27.1702 29.7521 27.8661 29.7465C28.562 29.7408 29.2277 29.4619 29.7198 28.9698C30.2119 28.4777 30.4908 27.812 30.4965 27.1161C30.5021 26.4202 30.234 25.75 29.75 25.25L23.873 19.373M20.17 23.17L22.666 20.14C22.983 19.756 23.406 19.514 23.874 19.374C24.424 19.21 25.037 19.186 25.617 19.234C26.3988 19.3011 27.1846 19.1627 27.8964 18.8323C28.6082 18.502 29.2212 17.9912 29.6746 17.3508C30.1281 16.7104 30.4062 15.9625 30.4813 15.1814C30.5565 14.4003 30.426 13.6131 30.103 12.898L26.827 16.175C26.2789 16.0483 25.7774 15.7702 25.3796 15.3724C24.9818 14.9746 24.7037 14.4731 24.577 13.925L27.853 10.649C27.1379 10.326 26.3507 10.1955 25.5696 10.2707C24.7885 10.3458 24.0406 10.6239 23.4002 11.0773C22.7598 11.5308 22.249 12.1438 21.9187 12.8556C21.5883 13.5674 21.4499 14.3532 21.517 15.135C21.608 16.211 21.446 17.399 20.613 18.085L20.511 18.17M20.17 23.17L15.515 28.823C15.2894 29.098 15.0087 29.3227 14.691 29.4827C14.3733 29.6427 14.0256 29.7344 13.6703 29.7518C13.315 29.7693 12.96 29.7122 12.6282 29.5842C12.2963 29.4562 11.9949 29.2602 11.7434 29.0086C11.4918 28.7571 11.2958 28.4557 11.1678 28.1238C11.0398 27.792 10.9827 27.4369 11.0002 27.0817C11.0176 26.7264 11.1093 26.3787 11.2693 26.061C11.4293 25.7433 11.654 25.4626 11.929 25.237L18.766 19.607L14.659 15.5H13.25L11 11.75L12.5 10.25L16.25 12.5V13.909L20.51 18.169L18.765 19.606M27.125 26.375L24.5 23.75M13.617 27.125H13.625V27.133H13.617V27.125Z" stroke="url(#paint0_linear_593_3406)" stroke-width="1.5" stroke-linecap="round" stroke-linejoin="round"/>
<defs>
<linearGradient id="paint0_linear_593_3406" x1="33.1467" y1="29.7549" x2="6.57025" y2="28.2638" gradientUnits="userSpaceOnUse">
<stop stop-color="#7F0102"/>
<stop offset="1" stop-color="#C90103"/>
</linearGradient>
</defs>
</svg>
