<svg width="48" height="48" viewBox="0 0 48 48" fill="none" xmlns="http://www.w3.org/2000/svg">
<rect x="-0.000244141" width="48" height="48" rx="24" fill="white"/>
<g clip-path="url(#clip0_593_3490)">
<path d="M30.0063 26.4486L28.7344 25.1767C28.5636 25.0056 28.3573 24.8741 28.13 24.7917C27.9028 24.7092 27.6601 24.6778 27.4194 24.6997C27.1786 24.721 26.9454 24.7951 26.7365 24.9166C26.5275 25.0382 26.3479 25.2042 26.2103 25.403L25.7672 26.0415C25.1647 25.9341 23.999 25.6303 23.1843 24.8155C22.3692 24.0003 22.0654 22.8342 21.9582 22.2325L22.5969 21.7894C22.7957 21.6518 22.9617 21.4722 23.0832 21.2632C23.2048 21.0542 23.2788 20.821 23.3001 20.5802C23.322 20.3395 23.2906 20.0969 23.2081 19.8696C23.1257 19.6424 22.9942 19.4361 22.8231 19.2654L21.5512 17.9934C21.0401 17.4824 20.2697 17.3604 19.634 17.6897C18.5195 18.2671 17.7874 19.3495 17.5724 20.7374C17.2221 22.9986 18.2674 25.6662 20.3005 27.6992C22.0736 29.4723 24.3292 30.4941 26.3771 30.4941C26.6773 30.4941 26.9732 30.4721 27.2623 30.4274C28.6503 30.2124 29.7326 29.4802 30.31 28.3658C30.6393 27.73 30.5173 26.9596 30.0063 26.4486ZM29.0158 27.6953C28.557 28.5809 27.6877 28.8865 27.0392 28.987C25.2563 29.2631 23.0157 28.3532 21.3311 26.6686C19.6465 24.984 18.7365 22.7435 19.0127 20.9605C19.1131 20.312 19.4188 19.4428 20.3044 18.9839C20.3284 18.9716 20.355 18.9653 20.3819 18.9654C20.4314 18.9654 20.4822 18.9858 20.5204 19.024L21.7924 20.296C21.8452 20.3489 21.852 20.409 21.8483 20.4501C21.8446 20.4913 21.8273 20.5492 21.7658 20.5919L20.7612 21.289C20.6578 21.3607 20.5749 21.4579 20.5202 21.5711C20.4656 21.6844 20.4412 21.8098 20.4494 21.9353C20.4558 22.0317 20.6215 24.3139 22.1536 25.846C23.6856 27.3781 25.9679 27.5439 26.0643 27.5502C26.1897 27.5583 26.3152 27.5339 26.4284 27.4792C26.5417 27.4246 26.6389 27.3417 26.7106 27.2384L27.4077 26.2337C27.4504 26.1723 27.5083 26.155 27.5494 26.1513C27.5907 26.1475 27.6507 26.1544 27.7037 26.2073L28.9756 27.4791C29.0347 27.5382 29.0512 27.6271 29.0158 27.6953Z" fill="#C40202"/>
<path d="M32.4849 15.5149C30.2183 13.2482 27.2048 12 23.9993 12C20.7938 12 17.7803 13.2482 15.5137 15.5148C13.5873 17.4412 12.3643 19.9908 12.0699 22.6939C11.7916 25.2493 12.347 27.8504 13.6355 30.0552L12.385 34.7222C12.3519 34.8458 12.3519 34.9758 12.385 35.0994C12.4181 35.2229 12.4832 35.3356 12.5736 35.4261C12.6641 35.5165 12.7767 35.5816 12.9003 35.6147C13.0238 35.6478 13.1539 35.6478 13.2775 35.6148L17.9445 34.3643C19.7775 35.4355 21.8845 36 24.0112 36C24.4426 36 24.8748 35.9768 25.3058 35.9298C28.0089 35.6355 30.5585 34.4125 32.4849 32.486C34.7515 30.2195 35.9997 27.2059 35.9997 24.0005C35.9997 20.7951 34.7515 17.7815 32.4849 15.5149ZM31.4542 31.4554C27.97 34.9396 22.6183 35.5588 18.44 32.9612C18.3553 32.9086 18.2607 32.8739 18.1621 32.8593C18.0635 32.8447 17.9629 32.8504 17.8666 32.8762L14.1195 33.8802L15.1236 30.1332C15.1494 30.0369 15.1551 29.9363 15.1405 29.8377C15.1259 29.7391 15.0912 29.6445 15.0385 29.5598C12.4409 25.3814 13.0601 20.0297 16.5443 16.5455C20.655 12.4348 27.3435 12.4348 31.4542 16.5455C35.5649 20.6561 35.5649 27.3447 31.4542 31.4554Z" fill="#C40202"/>
</g>
<defs>
<clipPath id="clip0_593_3490">
<rect width="24" height="24" fill="white" transform="translate(11.9998 12)"/>
</clipPath>
</defs>
</svg>
